<svg xmlns="http://www.w3.org/2000/svg" width="400" height="161.814" viewBox="0 0 400 161.814">
  <g id="Aliens_Tattoo" data-name="Aliens Tattoo" transform="translate(-13.1 -17.8)">
    <path id="Path_104426" data-name="Path 104426" d="M135.684,112.311c-2.231,6.766-5.543,13.82-10.077,19.363C115.1,144.415,99.621,149.958,92.5,151.9a2.845,2.845,0,0,1-3.6-2.735c0-.648.072-1.3.144-2.015,1.656-10.077,10.005-23.538,16.7-31.672,9.717-11.733,25.985-25.769,43.261-29.944l-6.982.432-4.247.288a28.32,28.32,0,0,0-3.455.432c-.216-13.82-.432-27.569-4.895-38.294-.576-1.3-1.152-2.663-1.8-3.959C120.136,29.677,100.485,17.8,81.05,17.8S41.964,29.677,34.478,44.433a33.1,33.1,0,0,0-1.8,3.959c-4.463,10.725-4.607,24.474-4.895,38.294a28.318,28.318,0,0,0-3.455-.432l-4.247-.288L13.1,85.534c17.347,4.175,33.543,18.211,43.261,29.944,6.694,8.134,15.044,21.594,16.7,31.672.072.72.144,1.368.144,2.015a2.845,2.845,0,0,1-3.6,2.735c-7.126-2.015-22.6-7.558-33.111-20.227-4.535-5.543-7.846-12.6-10.077-19.363v.36A29.7,29.7,0,0,0,28,122.677c5.111,15.476,12.669,23.97,23.826,29.44,7.486,3.671,12.669,4.607,13.173,10.293.432,5.4-6.766,6.046-1.3,8.638q.864.432,1.943.864l.36,2.879a1.721,1.721,0,0,0,1.8,1.44l1.44-.072a.806.806,0,0,0,.72-.864l-.216-2.231a34.943,34.943,0,0,0,4.1.648l.36,4.247a1.8,1.8,0,0,0,1.8,1.656h1.512a.8.8,0,0,0,.792-.792v-4.679q2.807.108,5.615,0v4.679a.8.8,0,0,0,.792.792h1.512a1.857,1.857,0,0,0,1.8-1.656l.36-4.247a34.946,34.946,0,0,0,4.1-.648l-.216,2.231a.855.855,0,0,0,.72.864l1.44.072a1.721,1.721,0,0,0,1.8-1.44l.36-2.879a12.142,12.142,0,0,0,1.943-.864c5.471-2.591-1.728-3.239-1.3-8.638.5-5.687,5.687-6.622,13.173-10.293,11.085-5.471,18.643-13.892,23.826-29.44a29.7,29.7,0,0,0,1.584-10.005c-.144-.072-.144-.216-.144-.36Zm-55.857,53.7s-1.656.072-3.023,0c-1.44-.072-2.663-2.663-.648-4.463,2.015-1.872,3.671-10.869,3.671-10.869Zm5.543.072c-1.44.072-3.023,0-3.023,0v-15.4s1.656,9.07,3.671,10.941C88.032,163.418,86.809,165.937,85.369,166.081Z"/>
    <path id="Path_104427" data-name="Path 104427" d="M272.823,95.4H255.044l-2.879,8.422H240L257.275,56.1h13.461l17.275,47.724H275.7Zm-2.951-9-5.9-17.419-5.83,17.491h11.733Z" transform="translate(-63.575 -10.731)"/>
    <path id="Path_104428" data-name="Path 104428" d="M327.461,94.826h15.188v9H315.8V56.1h11.661V94.826Z" transform="translate(-84.813 -10.731)"/>
    <path id="Path_104429" data-name="Path 104429" d="M376.289,56.1v47.724H364.7V56.1Z" transform="translate(-98.514 -10.731)"/>
    <path id="Path_104430" data-name="Path 104430" d="M407.861,65.458V75.1h15.548v9H407.861V94.538h17.563v9.286H396.2V56.1h29.224v9.286H407.861Z" transform="translate(-107.34 -10.731)"/>
    <path id="Path_104431" data-name="Path 104431" d="M491.913,103.824H480.324l-19.435-29.44v29.44H449.3V56.1h11.589l19.435,29.584V56.1h11.589Z" transform="translate(-122.218 -10.731)"/>
    <path id="Path_104432" data-name="Path 104432" d="M527.514,102.292a15.534,15.534,0,0,1-6.622-5.039,13.587,13.587,0,0,1-2.591-7.99h12.381a6.208,6.208,0,0,0,1.8,4.031,5.776,5.776,0,0,0,4.1,1.368,6.477,6.477,0,0,0,4.1-1.224,3.943,3.943,0,0,0,1.512-3.311,4.077,4.077,0,0,0-1.224-2.951,9.411,9.411,0,0,0-2.951-1.872,50.231,50.231,0,0,0-4.895-1.728A45.345,45.345,0,0,1,525.57,80.7a14.1,14.1,0,0,1-5.039-4.247,11.474,11.474,0,0,1-2.087-7.27,12.43,12.43,0,0,1,4.823-10.437c3.239-2.519,7.414-3.743,12.6-3.743,5.255,0,9.5,1.224,12.669,3.743a13.478,13.478,0,0,1,5.183,10.509h-12.6a4.689,4.689,0,0,0-1.728-3.6,6.026,6.026,0,0,0-4.031-1.3,4.712,4.712,0,0,0-3.383,1.152,3.975,3.975,0,0,0-1.3,3.239,4.036,4.036,0,0,0,2.159,3.6,36.927,36.927,0,0,0,6.766,2.807,46.979,46.979,0,0,1,7.486,3.023,13.111,13.111,0,0,1,4.967,4.175,11.334,11.334,0,0,1,2.088,6.982,13.88,13.88,0,0,1-2.088,7.414,14.648,14.648,0,0,1-6.046,5.327,20.77,20.77,0,0,1-9.286,1.943,23.872,23.872,0,0,1-9.214-1.728Z" transform="translate(-141.551 -10.423)"/>
    <path id="Path_104433" data-name="Path 104433" d="M270.668,138.2v3.959H257.5v43.549h-4.751V142.159H239.5V138.2Z" transform="translate(-63.435 -33.735)"/>
    <path id="Path_104434" data-name="Path 104434" d="M310.108,174.659H288.514l-4.175,11.3H279.3l17.347-46.86h5.4l17.275,46.86h-5.039Zm-1.44-3.887-9.358-25.7-9.358,25.7Z" transform="translate(-74.586 -33.987)"/>
    <path id="Path_104435" data-name="Path 104435" d="M362.368,138.2v3.959H349.2v43.549h-4.751V142.159H331.2V138.2Z" transform="translate(-89.128 -33.735)"/>
    <path id="Path_104436" data-name="Path 104436" d="M415.268,138.2v3.959H402.1v43.549h-4.751V142.159H384.1V138.2Z" transform="translate(-103.95 -33.735)"/>
    <path id="Path_104437" data-name="Path 104437" d="M442.589,182.92a22.766,22.766,0,0,1-8.494-8.638,26.888,26.888,0,0,1,0-25.049,22.766,22.766,0,0,1,8.494-8.638,24.751,24.751,0,0,1,23.97,0,22.083,22.083,0,0,1,8.422,8.638,27.456,27.456,0,0,1,0,25.049,22.083,22.083,0,0,1-8.422,8.638,23.372,23.372,0,0,1-12.021,3.1A24.022,24.022,0,0,1,442.589,182.92Zm21.45-3.527a16.969,16.969,0,0,0,6.622-7.054,21.963,21.963,0,0,0,2.447-10.653,21.676,21.676,0,0,0-2.447-10.581,17.238,17.238,0,0,0-6.622-6.982,19.668,19.668,0,0,0-19,0,17.218,17.218,0,0,0-6.622,6.982,21.676,21.676,0,0,0-2.447,10.581,22.159,22.159,0,0,0,2.447,10.653,17.9,17.9,0,0,0,6.622,7.054,19.668,19.668,0,0,0,19,0Z" transform="translate(-117.091 -33.538)"/>
    <path id="Path_104438" data-name="Path 104438" d="M515.089,182.92a22.766,22.766,0,0,1-8.494-8.638,26.889,26.889,0,0,1,0-25.049,22.766,22.766,0,0,1,8.494-8.638,24.751,24.751,0,0,1,23.97,0,22.083,22.083,0,0,1,8.422,8.638,27.455,27.455,0,0,1,0,25.049,22.083,22.083,0,0,1-8.422,8.638,23.372,23.372,0,0,1-12.021,3.1A24.023,24.023,0,0,1,515.089,182.92Zm21.45-3.527a16.969,16.969,0,0,0,6.622-7.054,21.963,21.963,0,0,0,2.447-10.653,21.676,21.676,0,0,0-2.447-10.581,17.238,17.238,0,0,0-6.622-6.982,19.668,19.668,0,0,0-19,0,17.218,17.218,0,0,0-6.622,6.982,21.676,21.676,0,0,0-2.447,10.581,22.159,22.159,0,0,0,2.447,10.653,17.9,17.9,0,0,0,6.622,7.054,19.668,19.668,0,0,0,19,0Z" transform="translate(-137.404 -33.538)"/>
  </g>
</svg>
