<svg xmlns="http://www.w3.org/2000/svg" width="400.001" height="97.828" viewBox="0 0 400.001 97.828">
  <g id="Crown_Bees" data-name="Crown Bees" transform="translate(0.01 -0.002)">
    <g id="Layer_2" data-name="Layer 2" transform="translate(78.194 63.666)">
      <rect id="Orange_Rect" data-name="Orange Rect" width="226.158" height="34.151" fill="#e59125"/>
    </g>
    <g id="Solitary" transform="translate(82.76 71.017)">
      <path id="Path_101915" data-name="Path 101915" d="M74.193,66.082h-9.1l-1.5,3.283H60L67.848,52h3.586L79.31,69.365H75.724ZM69.655,55.6,66.4,63.034h6.483Z" transform="translate(-60 -51.297)" fill="#fff"/>
      <path id="Path_101916" data-name="Path 101916" d="M89.515,56.331a4.979,4.979,0,0,0-4.138-1.945c-2.441,0-3.614,1.021-3.614,2.317,0,1.517,1.793,1.945,3.876,2.193,3.641.441,7.02,1.379,7.02,5.517,0,3.89-3.434,5.517-7.31,5.517-3.559,0-6.3-1.1-7.6-4.29l2.759-1.379a4.965,4.965,0,0,0,4.9,2.759c2.069,0,4.014-.731,4.014-2.621,0-1.641-1.724-2.317-4.027-2.565-3.559-.414-6.9-1.379-6.9-5.269,0-3.586,3.545-5.062,6.745-5.076,2.759,0,5.517.772,6.9,3.448Z" transform="translate(-53.268 -51.49)" fill="#fff"/>
      <path id="Path_101917" data-name="Path 101917" d="M102.972,61.911a6.386,6.386,0,1,1-6.427-6.4,6.22,6.22,0,0,1,6.427,6.4Zm-9.738,0a3.352,3.352,0,1,0,6.676,0,3.462,3.462,0,0,0-3.338-3.627,3.365,3.365,0,0,0-3.338,3.627Z" transform="translate(-48.546 -49.966)" fill="#fff"/>
      <path id="Path_101918" data-name="Path 101918" d="M103.979,52V69.365H101V52Z" transform="translate(-44.45 -51.297)" fill="#fff"/>
      <path id="Path_101919" data-name="Path 101919" d="M108.476,53.683a1.793,1.793,0,1,1-1.793-1.793A1.793,1.793,0,0,1,108.476,53.683Zm-3.31,3.407V69.407H108.2V57.09Z" transform="translate(-42.975 -51.338)" fill="#fff"/>
      <path id="Path_101920" data-name="Path 101920" d="M113.844,53.19v3.476h3.379v2.621h-3.407v5.3a1.531,1.531,0,0,0,1.586,1.752,3.365,3.365,0,0,0,1.476-.386l.841,2.593a6.9,6.9,0,0,1-2.51.524c-2.662.1-4.4-1.379-4.4-4.483v-5.3h-2.29V56.666h2.29V53.507Z" transform="translate(-41.598 -50.845)" fill="#fff"/>
      <path id="Path_101921" data-name="Path 101921" d="M126.394,55.774h2.91V68.05H126.45l-.152-1.793a4.676,4.676,0,0,1-3.986,2.165c-3.627,0-6.317-2.207-6.317-6.524a5.972,5.972,0,0,1,6.4-6.414,4.51,4.51,0,0,1,3.9,1.986ZM119.029,61.9a3.517,3.517,0,0,0,3.627,3.738c4.786,0,4.786-7.434,0-7.434a3.49,3.49,0,0,0-3.627,3.7Z" transform="translate(-38.77 -49.981)" fill="#fff"/>
      <path id="Path_101922" data-name="Path 101922" d="M130.317,55.793l.221,1.379A3.627,3.627,0,0,1,134,55.435a4.621,4.621,0,0,1,3.159,1.172l-1.379,2.634a3.021,3.021,0,0,0-2.193-.8,2.841,2.841,0,0,0-3.062,3.117v6.469H127.49V55.752Z" transform="translate(-34.403 -50)" fill="#fff"/>
      <path id="Path_101923" data-name="Path 101923" d="M148.558,55.69,141.068,73.1h-3.352l2.29-5.324-4.9-12.082h3.531L140.475,61l1.172,3.462,1.269-3.393,2.248-5.379Z" transform="translate(-31.514 -49.897)" fill="#fff"/>
      <path id="Path_101924" data-name="Path 101924" d="M160.855,56.331a4.979,4.979,0,0,0-4.138-1.945c-2.441,0-3.614,1.021-3.614,2.317,0,1.517,1.793,1.945,3.89,2.193,3.627.441,7.007,1.379,7.007,5.517,0,3.89-3.434,5.517-7.31,5.517-3.559,0-6.3-1.1-7.6-4.29l2.759-1.379a4.965,4.965,0,0,0,4.9,2.759c2.069,0,4.014-.731,4.014-2.621,0-1.641-1.724-2.317-4.027-2.565-3.559-.414-6.9-1.379-6.9-5.269,0-3.586,3.545-5.062,6.745-5.076,2.759,0,5.517.772,6.9,3.448Z" transform="translate(-26.211 -51.49)" fill="#fff"/>
      <path id="Path_101925" data-name="Path 101925" d="M174.312,61.911a6.386,6.386,0,1,1-6.427-6.4,6.22,6.22,0,0,1,6.427,6.4Zm-9.738,0a3.352,3.352,0,1,0,6.676,0,3.462,3.462,0,0,0-3.338-3.627,3.365,3.365,0,0,0-3.338,3.627Z" transform="translate(-21.49 -49.966)" fill="#fff"/>
      <path id="Path_101926" data-name="Path 101926" d="M175.331,52V69.365H172.31V52Z" transform="translate(-17.405 -51.297)" fill="#fff"/>
      <path id="Path_101927" data-name="Path 101927" d="M179.518,55.69v6.427a2.924,2.924,0,0,0,2.965,3.283,3.227,3.227,0,0,0,3.131-3.434V55.69h3.021v12.3h-2.759l-.193-1.669a5.517,5.517,0,0,1-4.138,1.848c-2.938,0-5.076-2.221-5.076-6.027V55.69Z" transform="translate(-15.827 -49.897)" fill="#fff"/>
      <path id="Path_101928" data-name="Path 101928" d="M191.8,53.19v3.476H195.2v2.621h-3.421v5.3a1.531,1.531,0,0,0,1.6,1.752,3.31,3.31,0,0,0,1.462-.386l.855,2.593a6.9,6.9,0,0,1-2.524.524c-2.662.1-4.4-1.379-4.4-4.483v-5.3h-2.29V56.666h2.29V53.507Z" transform="translate(-12.031 -50.845)" fill="#fff"/>
      <path id="Path_101929" data-name="Path 101929" d="M197.826,53.683a1.793,1.793,0,1,1-1.793-1.793A1.793,1.793,0,0,1,197.826,53.683Zm-3.31,3.407V69.407h3.034V57.09Z" transform="translate(-9.088 -51.338)" fill="#fff"/>
      <path id="Path_101930" data-name="Path 101930" d="M211.182,61.911a6.386,6.386,0,1,1-6.441-6.4,6.22,6.22,0,0,1,6.441,6.4Zm-9.738,0a3.352,3.352,0,1,0,6.676,0,3.462,3.462,0,0,0-3.379-3.627,3.365,3.365,0,0,0-3.3,3.627Z" transform="translate(-7.506 -49.966)" fill="#fff"/>
      <path id="Path_101931" data-name="Path 101931" d="M218.233,68.019V61.6a2.924,2.924,0,0,0-2.952-3.3,3.227,3.227,0,0,0-3.145,3.379v6.276H209.13V55.729h2.759l.193,1.669a5.517,5.517,0,0,1,4.027-1.848c2.9,0,5.214,2.165,5.214,6.027v6.441Z" transform="translate(-3.44 -49.95)" fill="#fff"/>
    </g>
    <g id="Layer_1" data-name="Layer 1" transform="translate(-0.01 0.003)">
      <path id="Path_101932" data-name="Path 101932" d="M36.678,17.73A36.688,36.688,0,1,0,73.367,54.4,36.688,36.688,0,0,0,36.678,17.73ZM67.808,54.4a31.13,31.13,0,1,1-31.13-31.13A31.13,31.13,0,0,1,67.808,54.4Z" transform="translate(0.01 6.721)" fill="#004332"/>
      <path id="Path_101933" data-name="Path 101933" d="M31.791,22.895S5.792,24.55.84,2.33C27.046-7.546,34.784,16.923,34.88,21.405,27.267,10.288,19.612,10.1,19.474,10.1S29.9,15.778,31.791,22.895Z" transform="translate(0.332 -0.003)" fill="#004332"/>
      <path id="Path_101934" data-name="Path 101934" d="M27.65,19.531S27.733.663,47.76,5.738C44.27,20.91,32.946,21.159,30.091,21.021c.124-1.09.248-5.807,4-8.4C29.733,13.9,27.65,19.531,27.65,19.531Z" transform="translate(10.5 1.844)" fill="#004332"/>
      <circle id="Ellipse_1" data-name="Ellipse 1" cx="8.193" cy="8.193" r="8.193" transform="translate(9.738 53.002)" fill="#004332"/>
      <circle id="Ellipse_2" data-name="Ellipse 2" cx="8.193" cy="8.193" r="8.193" transform="translate(28.523 53.002)" fill="#004332"/>
      <circle id="Ellipse_3" data-name="Ellipse 3" cx="8.193" cy="8.193" r="8.193" transform="translate(47.267 53.002)" fill="#004332"/>
      <circle id="Ellipse_4" data-name="Ellipse 4" cx="8.193" cy="8.193" r="8.193" transform="translate(37.888 69.263)" fill="#004332"/>
      <circle id="Ellipse_5" data-name="Ellipse 5" cx="8.193" cy="8.193" r="8.193" transform="translate(19.158 36.74)" fill="#004332"/>
      <circle id="Ellipse_6" data-name="Ellipse 6" cx="8.193" cy="8.193" r="8.193" transform="translate(19.117 69.236)" fill="#004332"/>
      <path id="Path_101935" data-name="Path 101935" d="M88.9,48.737a18.372,18.372,0,0,1-13.241,5.241c-12.924,0-18.4-8.91-18.455-17.93S63.076,17.69,75.655,17.69A17.93,17.93,0,0,1,88.44,23.014l-4.372,4.221a11.972,11.972,0,0,0-8.414-3.283c-8.4,0-12.027,6.276-11.986,12.1s3.393,11.779,11.986,11.779A12.8,12.8,0,0,0,84.413,44.3Z" transform="translate(21.708 6.706)" fill="#004332"/>
      <path id="Path_101936" data-name="Path 101936" d="M113.734,52.958h-7.82L95.776,41.317H89.459V52.958H82.88V18.09H99.431c8.276,0,12.538,5.517,12.538,11.544,0,4.772-2.179,9.655-8.8,10.951l10.565,11.862Zm-24.275-28.7V35.4h9.986c4.138,0,5.972-2.759,5.972-5.517a5.517,5.517,0,0,0-5.972-5.517Z" transform="translate(31.447 6.857)" fill="#004332"/>
      <path id="Path_101937" data-name="Path 101937" d="M141.838,35.9c-.083,9.007-5.614,18.082-17.848,18.082s-17.93-8.813-17.93-17.93,5.862-18.358,17.93-18.358S141.948,26.793,141.838,35.9Zm-29.282.152c.138,5.724,3.227,11.834,11.434,11.834s11.3-6.165,11.393-11.889S132.2,23.579,123.99,23.579,112.4,30.172,112.556,36.048Z" transform="translate(40.238 6.706)" fill="#004332"/>
      <path id="Path_101938" data-name="Path 101938" d="M172.606,52.946h-5.517l-4.331-10.938-3.683-11.034-3.627,11.034L151.213,52.85H145.7L132.8,18.12h7.365l8.276,25.13L156.9,18.12h4.276l8.717,25.13,7.958-25.13H185.2Z" transform="translate(50.38 6.869)" fill="#004332"/>
      <path id="Path_101939" data-name="Path 101939" d="M196.427,18.09h6.538V52.958h-4.138l-18.22-23.475V52.93H174v-34.8h5.324l17.061,21.6Z" transform="translate(66.006 6.857)" fill="#004332"/>
      <path id="Path_101940" data-name="Path 101940" d="M227.776,28.23a7.062,7.062,0,0,1-4.538,6.7,8.5,8.5,0,0,1,5.517,7.765c0,7.765-5.821,10.248-13.034,10.248H199.17V18.12h16.551C222.645,18.12,227.776,21.21,227.776,28.23Zm-22.068,3.876h10.041c4.138,0,5.517-1.738,5.517-3.738,0-1.586-1.3-4.276-5.517-4.276H205.708Zm0,14.717h10.041c2.69,0,6.524-.9,6.524-4.138s-3.834-4.772-6.524-4.772H205.708Z" transform="translate(75.552 6.869)" fill="#e59125"/>
      <path id="Path_101941" data-name="Path 101941" d="M249.985,52.946H224V18.12h26.054v6.372H230.441v8.014H249.3v6.138H230.441v7.862h19.544Z" transform="translate(84.969 6.869)" fill="#e59125"/>
      <path id="Path_101942" data-name="Path 101942" d="M272.518,52.946H246.45V18.12h26.068v6.372H252.974v8.014h18.855v6.138H252.974v7.862h19.544Z" transform="translate(93.483 6.869)" fill="#e59125"/>
      <path id="Path_101943" data-name="Path 101943" d="M291.806,26.867c-1.2-1.986-4.483-3.876-8.276-3.876-4.869,0-7.214,2.028-7.214,4.621,0,3.034,3.586,3.876,7.765,4.372,7.214.9,14.11,2.855,14.11,11.131,0,7.751-6.9,11.034-14.62,11.034-7.117,0-12.593-2.193-15.172-8.551l5.517-2.841c1.545,3.834,5.517,5.517,9.807,5.517s8.014-1.379,8.014-5.214c0-3.283-3.434-4.634-8.069-5.131-7.1-.841-13.682-2.759-13.682-10.538,0-7.172,7.076-10.11,13.489-10.151,5.421,0,11.034,1.545,13.682,6.9Z" transform="translate(101.808 6.535)" fill="#e59125"/>
      <path id="Path_101944" data-name="Path 101944" d="M43.76,33.29H27.54a8.276,8.276,0,0,0,.7,2.359H43.057A8.675,8.675,0,0,0,43.76,33.29Z" transform="translate(10.459 12.622)" fill="#e59125"/>
      <path id="Path_101945" data-name="Path 101945" d="M43.057,30H28.243a8.013,8.013,0,0,0-.7,2.372H43.76a8.441,8.441,0,0,0-.7-2.372Z" transform="translate(10.459 11.374)" fill="#e59125"/>
      <path id="Path_101946" data-name="Path 101946" d="M29.17,36.63a8.165,8.165,0,0,0,11.724,0Z" transform="translate(11.077 13.889)" fill="#e59125"/>
      <path id="Path_101947" data-name="Path 101947" d="M40.894,29.019a8.193,8.193,0,0,0-11.724,0Z" transform="translate(11.077 10.066)" fill="#e59125"/>
    </g>
  </g>
</svg>
