<svg xmlns="http://www.w3.org/2000/svg" width="720" height="480" fill="none" xmlns:v="https://vecta.io/nano"><path fill="#ffd730" d="M0 0h720v480H0z"/><mask id="A" maskUnits="userSpaceOnUse" x="0" y="0" width="720" height="480" mask-type="alpha"><path fill="#d9d9d9" d="M0 0h720v480H0z"/></mask><g mask="url(#A)"><path fill-rule="evenodd" d="M8.304-86.875C42.529-95.437 71.89-65.713 102.401-48c30.413 17.656 72.918 27.855 80.133 62.274 7.15 34.105-23.791 63.578-48.626 88.022-18.012 17.73-44.892 16.179-67.89 26.665-32.763 14.938-58.25 56.559-92.861 46.63-35.597-10.212-51.83-53.321-57.845-89.862-5.505-33.442 11.533-63.992 27.609-93.83 16.826-31.23 30.97-70.164 65.384-78.773z" fill="#f7c906"/></g><path d="M62.988 265v-25.734h8.068c8.279 0 13.166 4.552 13.166 12.744 0 8.42-5.15 12.99-13.236 12.99h-7.998zm4.043-3.199h3.85c6.398 0 9.176-3.78 9.176-9.826 0-6.241-2.953-9.51-9.211-9.51h-3.814v19.336zm28.813 3.551c-5.731 0-9.422-4.237-9.422-9.914 0-5.52 3.99-9.651 9.633-9.651 5.713 0 9.439 4.236 9.439 9.756 0 5.713-4.008 9.809-9.65 9.809zm.123-2.989c4.06 0 5.713-3.234 5.713-6.767 0-3.674-1.793-6.821-5.784-6.821-4.061 0-5.66 3.235-5.66 6.803 0 3.779 1.793 6.785 5.731 6.785zM108.766 265v-18.844h3.744v2.989c1.125-2.338 3.621-3.34 6.17-3.34 4.57 0 6.715 3.252 6.715 7.593V265h-3.745v-11.496c0-2.9-1.371-4.553-4.254-4.553-3.041 0-4.886 1.846-4.886 4.799V265h-3.744zm19.777-18.141l3.129-7.963 3.463 1.407-4.36 7.593-2.232-1.037zm18.793 14.977v3.023c-.897.282-1.811.422-2.813.422-3.498 0-5.361-1.722-5.361-5.291v-10.916h-2.637v-2.918h2.637v-3.709l3.709-1.617v5.326h4.236v2.918h-4.236v10.565c0 1.511.598 2.584 2.356 2.584.632 0 1.371-.141 2.109-.387zm9.18 3.164v-18.844h3.744v2.883c1.072-2.197 3.058-3.252 5.431-3.252 2.409 0 4.905 1.09 5.836 3.463 1.266-2.25 3.692-3.463 6.364-3.463 4.324 0 6.521 3.182 6.521 7.383V265h-3.744v-11.76c0-2.707-1.283-4.271-4.078-4.271-2.742 0-4.272 2.039-4.272 4.64V265h-3.744v-11.76c0-2.672-1.318-4.271-3.902-4.271-2.901 0-4.412 2.039-4.412 4.64V265h-3.744zm31.888-24.258c0-1.265 1.055-2.267 2.321-2.267 1.248 0 2.32.966 2.32 2.267 0 1.266-1.055 2.268-2.32 2.268s-2.321-1.002-2.321-2.268zm.51 24.258v-18.791h3.709V265h-3.709zm6.945-4.359l2.848-1.248c.703 1.951 2.602 3.093 4.641 3.093 1.828 0 3.779-.58 3.779-2.601 0-2.11-2.127-2.602-4.588-3.164-2.812-.651-6.082-1.407-6.082-5.432 0-3.568 3.516-5.484 6.697-5.484 3.024 0 5.748 1.371 7.067 4.183l-2.813 1.231c-.791-1.74-2.408-2.549-4.148-2.549-1.582 0-3.34.668-3.34 2.426 0 1.916 2.057 2.338 4.359 2.812 2.989.615 6.416 1.336 6.416 5.485 0 4.236-3.55 5.959-7.224 5.959-3.358 0-6.487-1.442-7.612-4.711zm16.508 0l2.848-1.248c.703 1.951 2.601 3.093 4.64 3.093 1.829 0 3.78-.58 3.78-2.601 0-2.11-2.127-2.602-4.588-3.164-2.813-.651-6.082-1.407-6.082-5.432 0-3.568 3.515-5.484 6.697-5.484 3.024 0 5.748 1.371 7.067 4.183l-2.813 1.231c-.791-1.74-2.408-2.549-4.148-2.549-1.582 0-3.34.668-3.34 2.426 0 1.916 2.056 2.338 4.359 2.812 2.988.615 6.416 1.336 6.416 5.485 0 4.236-3.551 5.959-7.224 5.959-3.358 0-6.487-1.442-7.612-4.711zm32.137 4.711c-5.731 0-9.422-4.237-9.422-9.914 0-5.52 3.99-9.651 9.633-9.651 5.713 0 9.439 4.236 9.439 9.756 0 5.713-4.008 9.809-9.65 9.809zm.123-2.989c4.061 0 5.713-3.234 5.713-6.767 0-3.674-1.793-6.821-5.783-6.821-4.061 0-5.661 3.235-5.661 6.803 0 3.779 1.793 6.785 5.731 6.785zM270.064 265v-2.988c-1.125 2.302-3.445 3.34-6.082 3.34-4.359 0-6.697-2.831-6.697-7.19v-11.988h3.692v11.654c0 2.883 1.423 4.43 4.201 4.43 3.076 0 4.886-1.916 4.886-4.781v-11.303h3.692V265h-3.692zm17.159-3.164v3.023c-.897.282-1.811.422-2.813.422-3.498 0-5.361-1.722-5.361-5.291v-10.916h-2.637v-2.918h2.637v-3.709l3.709-1.617v5.326h4.236v2.918h-4.236v10.565c0 1.511.597 2.584 2.355 2.584.633 0 1.371-.141 2.11-.387zm17.3 3.516c-5.73 0-9.421-4.237-9.421-9.914 0-5.52 3.99-9.651 9.632-9.651 5.713 0 9.44 4.236 9.44 9.756 0 5.713-4.008 9.809-9.651 9.809zm.123-2.989c4.061 0 5.713-3.234 5.713-6.767 0-3.674-1.793-6.821-5.783-6.821-4.06 0-5.66 3.235-5.66 6.803 0 3.779 1.793 6.785 5.73 6.785zM317.445 265v-18.844h3.744v2.989c1.125-2.338 3.622-3.34 6.17-3.34 4.571 0 6.715 3.252 6.715 7.593V265h-3.744v-11.496c0-2.9-1.371-4.553-4.254-4.553-3.041 0-4.887 1.846-4.887 4.799V265h-3.744zm35.969-3.164v3.023a9.2 9.2 0 0 1-2.812.422c-3.498 0-5.362-1.722-5.362-5.291v-10.916h-2.636v-2.918h2.636v-3.709l3.709-1.617v5.326h4.237v2.918h-4.237v10.565c0 1.511.598 2.584 2.356 2.584.633 0 1.371-.141 2.109-.387zm3.148 3.164v-27.686h3.745v11.831c1.125-2.338 3.568-3.358 6.134-3.358 4.571 0 6.821 3.199 6.821 7.611V265h-3.744v-11.496c0-2.953-1.459-4.57-4.307-4.57-3.111 0-4.904 1.916-4.904 4.816V265h-3.745zm34.139-5.537l3.094 1.318c-1.652 3.199-4.606 4.571-7.981 4.571-5.941 0-9.439-4.219-9.439-9.704 0-5.537 3.551-9.843 9.105-9.843 6.592 0 8.684 4.675 8.684 10.547h-13.975c0 3.462 1.846 6.099 5.45 6.099 2.302 0 4.06-1.09 5.062-2.988zm-10.406-5.783h10.16c-.193-3.041-1.775-5.028-4.834-5.028-3.199 0-4.904 2.198-5.326 5.028zM403.467 265v-26.033l3.744-1.653V265h-3.744zm19.127 0v-2.338c-1.389 1.881-3.533 2.69-5.801 2.69-3.445 0-6.293-1.899-6.293-5.573 0-5.027 5.414-5.906 9.721-5.906h2.338c0-3.023-.457-5.15-3.991-5.15-1.898 0-3.779 1.142-4.429 2.97l-3.059-1.318c1.354-3.217 4.465-4.57 7.77-4.57 4.359 0 7.418 2.355 7.418 6.873V265h-3.674zm-.035-8.684h-2.373c-2.268 0-5.977.317-5.977 3.498 0 1.916 1.336 2.743 3.27 2.743 2.46 0 5.08-1.371 5.08-4.149v-2.092zm17.035 5.52v3.023c-.897.282-1.811.422-2.813.422-3.498 0-5.361-1.722-5.361-5.291v-10.916h-2.637v-2.918h2.637v-3.709l3.709-1.617v5.326h4.236v2.918h-4.236v10.565c0 1.511.598 2.584 2.355 2.584.633 0 1.371-.141 2.11-.387zm15.646-2.373l3.094 1.318c-1.652 3.199-4.605 4.571-7.98 4.571-5.942 0-9.44-4.219-9.44-9.704 0-5.537 3.551-9.843 9.106-9.843 6.591 0 8.683 4.675 8.683 10.547h-13.974c0 3.462 1.845 6.099 5.449 6.099 2.302 0 4.06-1.09 5.062-2.988zm-10.406-5.783h10.16c-.193-3.041-1.775-5.028-4.834-5.028-3.199 0-4.904 2.198-5.326 5.028zm15.717 6.961l2.847-1.248c.704 1.951 2.602 3.093 4.641 3.093 1.828 0 3.779-.58 3.779-2.601 0-2.11-2.127-2.602-4.588-3.164-2.812-.651-6.082-1.407-6.082-5.432 0-3.568 3.516-5.484 6.698-5.484 3.023 0 5.748 1.371 7.066 4.183l-2.812 1.231c-.791-1.74-2.409-2.549-4.149-2.549-1.582 0-3.34.668-3.34 2.426 0 1.916 2.057 2.338 4.36 2.812 2.988.615 6.416 1.336 6.416 5.485 0 4.236-3.551 5.959-7.225 5.959-3.357 0-6.486-1.442-7.611-4.711zm26.879 1.195v3.023c-.897.282-1.811.422-2.813.422-3.498 0-5.361-1.722-5.361-5.291v-10.916h-2.637v-2.918h2.637v-3.709l3.709-1.617v5.326h4.236v2.918h-4.236v10.565c0 1.511.597 2.584 2.355 2.584.633 0 1.371-.141 2.11-.387zM509.248 265v-2.988c-1.125 2.302-3.445 3.34-6.082 3.34-4.359 0-6.697-2.831-6.697-7.19v-11.988h3.691v11.654c0 2.883 1.424 4.43 4.201 4.43 3.077 0 4.887-1.916 4.887-4.781v-11.303h3.691V265h-3.691zm8.264 6.521v-25.365h3.744v3.129c1.265-2.18 4.096-3.48 6.539-3.48 5.766 0 8.508 4.57 8.508 9.703 0 5.308-2.936 9.844-8.508 9.844-2.479 0-5.274-1.125-6.539-3.375v9.544h-3.744zm9.474-9.193c4.166 0 5.502-3.182 5.502-6.873 0-3.428-1.74-6.627-5.713-6.627-3.955 0-5.677 3.199-5.677 6.785 0 3.832 1.933 6.715 5.888 6.715zM553.32 265v-3.199c-1.213 2.215-4.131 3.551-6.591 3.551-5.713 0-8.456-4.413-8.456-9.704 0-5.203 3.112-9.861 8.614-9.861 2.619 0 5.115 1.055 6.433 3.358v-11.848h3.744V265h-3.744zm-5.8-2.672c4.148 0 5.941-3.094 5.941-6.908 0-3.691-1.688-6.609-5.678-6.609-4.236 0-5.66 3.287-5.66 6.978 0 3.393 1.652 6.539 5.397 6.539zM572.289 265v-2.338c-1.389 1.881-3.533 2.69-5.801 2.69-3.445 0-6.293-1.899-6.293-5.573 0-5.027 5.414-5.906 9.721-5.906h2.338c0-3.023-.457-5.15-3.99-5.15-1.899 0-3.78 1.142-4.43 2.97l-3.059-1.318c1.354-3.217 4.465-4.57 7.77-4.57 4.359 0 7.418 2.355 7.418 6.873V265h-3.674zm-.035-8.684h-2.373c-2.268 0-5.977.317-5.977 3.498 0 1.916 1.336 2.743 3.27 2.743 2.461 0 5.08-1.371 5.08-4.149v-2.092zm17.035 5.52v3.023a9.2 9.2 0 0 1-2.812.422c-3.498 0-5.362-1.722-5.362-5.291v-10.916h-2.636v-2.918h2.636v-3.709l3.709-1.617v5.326h4.237v2.918h-4.237v10.565c0 1.511.598 2.584 2.356 2.584.632 0 1.371-.141 2.109-.387zm15.647-2.373l3.093 1.318c-1.652 3.199-4.605 4.571-7.98 4.571-5.942 0-9.44-4.219-9.44-9.704 0-5.537 3.551-9.843 9.106-9.843 6.592 0 8.683 4.675 8.683 10.547h-13.974c0 3.462 1.846 6.099 5.449 6.099 2.303 0 4.061-1.09 5.063-2.988zm-10.407-5.783h10.16c-.193-3.041-1.775-5.028-4.834-5.028-3.199 0-4.904 2.198-5.326 5.028zm15.717 6.961l2.848-1.248c.703 1.951 2.601 3.093 4.64 3.093 1.828 0 3.78-.58 3.78-2.601 0-2.11-2.127-2.602-4.588-3.164-2.813-.651-6.082-1.407-6.082-5.432 0-3.568 3.515-5.484 6.697-5.484 3.023 0 5.748 1.371 7.066 4.183l-2.812 1.231c-.791-1.74-2.408-2.549-4.149-2.549-1.582 0-3.339.668-3.339 2.426 0 1.916 2.056 2.338 4.359 2.812 2.988.615 6.416 1.336 6.416 5.485 0 4.236-3.551 5.959-7.225 5.959-3.357 0-6.486-1.442-7.611-4.711zM63.463 311v-15.926h-2.637v-2.918h2.637c0-4.64.105-9 5.906-9 1.037 0 1.969.141 2.83.475l-1.143 2.654c-.422-.07-.844-.14-1.266-.14-2.074 0-2.602 1.546-2.602 3.339v2.672h4.447v2.918h-4.43V311h-3.744zm10.162 0v-18.844h3.744v3.463c1.336-2.584 3.27-3.797 6.152-3.797v3.498c-3.85.141-6.152 1.477-6.152 5.625V311h-3.744zm20.269.352c-5.73 0-9.422-4.237-9.422-9.914 0-5.52 3.99-9.651 9.633-9.651 5.713 0 9.439 4.236 9.439 9.756 0 5.713-4.008 9.809-9.651 9.809zm.123-2.989c4.061 0 5.713-3.234 5.713-6.767 0-3.674-1.793-6.821-5.783-6.821-4.061 0-5.66 3.235-5.66 6.803 0 3.779 1.793 6.785 5.731 6.785zM106.816 311v-18.844h3.745v2.883c1.072-2.197 3.058-3.252 5.431-3.252 2.408 0 4.904 1.09 5.836 3.463 1.266-2.25 3.692-3.463 6.363-3.463 4.325 0 6.522 3.182 6.522 7.383V311h-3.744v-11.76c0-2.707-1.283-4.271-4.078-4.271-2.743 0-4.272 2.039-4.272 4.64V311h-3.744v-11.76c0-2.672-1.318-4.271-3.902-4.271-2.901 0-4.412 2.039-4.412 4.64V311h-3.745zm46.446.352c-5.731 0-9.422-4.237-9.422-9.914 0-5.52 3.99-9.651 9.633-9.651 5.713 0 9.439 4.236 9.439 9.756 0 5.713-4.008 9.809-9.65 9.809zm.123-2.989c4.06 0 5.713-3.234 5.713-6.767 0-3.674-1.793-6.821-5.784-6.821-4.06 0-5.66 3.235-5.66 6.803 0 3.779 1.793 6.785 5.731 6.785zM178.822 311v-2.988c-1.125 2.302-3.445 3.34-6.082 3.34-4.359 0-6.697-2.831-6.697-7.19v-11.988h3.691v11.654c0 2.883 1.424 4.43 4.202 4.43 3.076 0 4.886-1.916 4.886-4.781v-11.303h3.692V311h-3.692zm8.264 0v-18.844h3.744v3.463c1.336-2.584 3.27-3.797 6.152-3.797v3.498c-3.849.141-6.152 1.477-6.152 5.625V311h-3.744zm18.988 6.521v-25.365h3.744v3.129c1.266-2.18 4.096-3.48 6.539-3.48 5.766 0 8.508 4.57 8.508 9.703 0 5.308-2.935 9.844-8.508 9.844-2.478 0-5.273-1.125-6.539-3.375v9.544h-3.744zm9.475-9.193c4.166 0 5.502-3.182 5.502-6.873 0-3.428-1.74-6.627-5.713-6.627-3.955 0-5.678 3.199-5.678 6.785 0 3.832 1.934 6.715 5.889 6.715zM228.137 311v-18.844h3.744v3.463c1.336-2.584 3.269-3.797 6.152-3.797v3.498c-3.849.141-6.152 1.477-6.152 5.625V311h-3.744zm20.269.352c-5.73 0-9.422-4.237-9.422-9.914 0-5.52 3.991-9.651 9.633-9.651 5.713 0 9.44 4.236 9.44 9.756 0 5.713-4.008 9.809-9.651 9.809zm.123-2.989c4.061 0 5.713-3.234 5.713-6.767 0-3.674-1.793-6.821-5.783-6.821-4.061 0-5.66 3.235-5.66 6.803 0 3.779 1.793 6.785 5.73 6.785zM275.074 311v-3.199c-1.213 2.215-4.131 3.551-6.592 3.551-5.712 0-8.455-4.413-8.455-9.704 0-5.203 3.112-9.861 8.614-9.861 2.619 0 5.115 1.055 6.433 3.358v-11.848h3.744V311h-3.744zm-5.801-2.672c4.149 0 5.942-3.094 5.942-6.908 0-3.691-1.688-6.609-5.678-6.609-4.236 0-5.66 3.287-5.66 6.978 0 3.393 1.652 6.539 5.396 6.539zM296.029 311v-2.988c-1.125 2.302-3.445 3.34-6.082 3.34-4.359 0-6.697-2.831-6.697-7.19v-11.988h3.691v11.654c0 2.883 1.424 4.43 4.202 4.43 3.076 0 4.886-1.916 4.886-4.781v-11.303h3.692V311h-3.692zm21.764-6.715l3.023 1.283c-1.3 3.832-4.658 5.784-8.63 5.784-5.854 0-9.194-4.219-9.194-9.897 0-5.414 3.815-9.65 9.51-9.65 3.621 0 6.715 1.705 8.209 5.238l-3.182 1.353c-.738-2.179-2.883-3.568-5.291-3.568-3.814 0-5.431 3.481-5.431 6.926 0 3.586 1.757 6.574 5.66 6.574 2.584 0 4.535-1.67 5.326-4.043zm14.996 3.551v3.023a9.2 9.2 0 0 1-2.812.422c-3.498 0-5.362-1.722-5.362-5.291v-10.916h-2.636v-2.918h2.636v-3.709l3.709-1.617v5.326h4.237v2.918h-4.237v10.565c0 1.511.598 2.584 2.356 2.584.632 0 1.371-.141 2.109-.387zm22.205-2.373l3.094 1.318c-1.652 3.199-4.606 4.571-7.981 4.571-5.941 0-9.439-4.219-9.439-9.704 0-5.537 3.551-9.843 9.105-9.843 6.592 0 8.684 4.675 8.684 10.547h-13.975c0 3.462 1.846 6.099 5.45 6.099 2.302 0 4.06-1.09 5.062-2.988zm-10.406-5.783h10.16c-.193-3.041-1.775-5.028-4.834-5.028-3.199 0-4.904 2.198-5.326 5.028zM359.479 311l6.662-9.668-6.223-9.158h4.307l4.254 6.416 4.218-6.416h3.955l-6.152 8.894 6.803 9.932h-4.36l-4.711-7.172-4.834 7.172h-3.919zm20.498 6.521v-25.365h3.744v3.129c1.265-2.18 4.095-3.48 6.539-3.48 5.765 0 8.508 4.57 8.508 9.703 0 5.308-2.936 9.844-8.508 9.844-2.479 0-5.274-1.125-6.539-3.375v9.544h-3.744zm9.474-9.193c4.166 0 5.502-3.182 5.502-6.873 0-3.428-1.74-6.627-5.713-6.627-3.955 0-5.678 3.199-5.678 6.785 0 3.832 1.934 6.715 5.889 6.715zm25.613-2.865l3.094 1.318c-1.652 3.199-4.605 4.571-7.98 4.571-5.942 0-9.44-4.219-9.44-9.704 0-5.537 3.551-9.843 9.106-9.843 6.592 0 8.683 4.675 8.683 10.547h-13.974c0 3.462 1.845 6.099 5.449 6.099 2.303 0 4.06-1.09 5.062-2.988zm-10.406-5.783h10.16c-.193-3.041-1.775-5.028-4.834-5.028-3.199 0-4.904 2.198-5.326 5.028zM421.746 311v-18.844h3.744v3.463c1.336-2.584 3.27-3.797 6.153-3.797v3.498c-3.85.141-6.153 1.477-6.153 5.625V311h-3.744zm21.957-3.164v3.023a9.2 9.2 0 0 1-2.812.422c-3.498 0-5.362-1.722-5.362-5.291v-10.916h-2.636v-2.918h2.636v-3.709l3.709-1.617v5.326h4.237v2.918h-4.237v10.565c0 1.511.598 2.584 2.356 2.584.633 0 1.371-.141 2.109-.387zm1.672-1.195l2.848-1.248c.703 1.951 2.601 3.093 4.64 3.093 1.828 0 3.78-.58 3.78-2.601 0-2.11-2.127-2.602-4.588-3.164-2.813-.651-6.082-1.407-6.082-5.432 0-3.568 3.515-5.484 6.697-5.484 3.023 0 5.748 1.371 7.066 4.183l-2.812 1.231c-.791-1.74-2.408-2.549-4.149-2.549-1.582 0-3.339.668-3.339 2.426 0 1.916 2.056 2.338 4.359 2.812 2.988.615 6.416 1.336 6.416 5.485 0 4.236-3.551 5.959-7.225 5.959-3.357 0-6.486-1.442-7.611-4.711zm19.461-3.164l-.615-18.211h4.183l-.615 18.211h-2.953zm-1.178 5.185c0-1.459 1.178-2.601 2.654-2.601 1.442 0 2.602 1.107 2.602 2.566 0 1.494-1.213 2.584-2.637 2.584-1.441 0-2.619-1.09-2.619-2.549zM64.481 195v-44.32h10.051v36.449H93.18V195H64.481zm32.815-41.808c0-2.845 2.27-4.813 5.086-4.813 2.846 0 5.146 2.028 5.146 4.904s-2.331 4.874-5.086 4.874c-2.815 0-5.146-2.058-5.146-4.965zM97.962 195v-32.362h8.931V195h-8.931zm24.944 0l-11.837-32.423h9.597l7.75 23.19 7.689-23.19h8.689L133.018 195h-10.112zm47.71-9.869l6.63 2.936c-2.513 5.843-8.9 7.629-14.44 7.629-10.717 0-17.226-6.63-17.226-17.013 0-9.718 6.902-16.863 16.741-16.863 6.297 0 11.958 2.907 14.38 8.84 1.362 3.33 1.362 6.751 1.362 10.142h-23.371c.243 4.995 2.755 8.507 8.053 8.507 3.512 0 6.176-.909 7.871-4.178zm-15.803-9.839h14.501c-.242-4.45-2.391-7.266-6.872-7.266-4.662 0-7.053 3.088-7.629 7.266zM204.006 195l-11.413-44.32h10.172l7.568 30.606 8.174-30.606h8.567l8.477 30.818 7.81-30.818h9.325L241.272 195H231.04l-8.628-30.637L213.663 195h-9.657zm71.807-9.869l6.63 2.936c-2.512 5.843-8.9 7.629-14.44 7.629-10.717 0-17.226-6.63-17.226-17.013 0-9.718 6.903-16.863 16.742-16.863 6.296 0 11.958 2.907 14.379 8.84 1.363 3.33 1.363 6.751 1.363 10.142H259.89c.242 4.995 2.755 8.507 8.052 8.507 3.512 0 6.176-.909 7.871-4.178zm-15.802-9.839h14.501c-.242-4.45-2.392-7.266-6.872-7.266-4.662 0-7.054 3.088-7.629 7.266zM288.134 195v-47.105h8.991v19.768c2.18-3.693 6.418-5.843 10.656-5.843 9.9 0 14.471 8.144 14.471 16.893 0 9.082-4.904 16.983-14.198 16.983-4.511 0-8.992-1.877-10.929-5.842V195h-8.991zm16.983-6.327c6.206 0 8.023-4.783 8.023-10.172 0-5.147-2.362-9.778-8.204-9.778-6.025 0-8.114 4.904-8.114 10.05 0 5.601 2.452 9.9 8.295 9.9zm21.736-35.481c0-2.845 2.27-4.813 5.085-4.813 2.846 0 5.147 2.028 5.147 4.904s-2.331 4.874-5.086 4.874c-2.815 0-5.146-2.058-5.146-4.965zm.666 41.808v-32.362h8.93V195h-8.93zm16.195 0v-32.423h8.991v5.147c2.089-3.996 6.509-5.904 10.959-5.904 7.568 0 10.808 5.48 10.808 12.534V195h-8.992v-19.345c0-4.026-1.816-6.509-5.994-6.509-4.45 0-6.781 2.846-6.781 7.145V195h-8.991zm56.005 0v-3.905c-2.301 3.421-5.722 4.601-9.567 4.601-6.297 0-11.019-3.148-11.019-9.627 0-8.234 7.689-10.444 14.682-10.444h5.813c0-4.359-.424-7.296-5.51-7.296-2.846 0-5.661 1.302-6.63 4.178l-6.872-2.997c2.119-5.843 8.689-7.69 14.531-7.69 7.841 0 13.351 3.361 13.351 12.049V195h-8.779zm-.091-14.077h-3.451c-3.209 0-8.265.242-8.265 4.601 0 2.876 2.15 3.906 4.753 3.906 3.512 0 6.963-1.847 6.963-5.783v-2.724zM415.278 195v-32.423h8.992v6.206c2.149-4.511 5.509-6.69 10.474-6.69v8.355c-5.873 0-10.474 1.574-10.474 8.295V195h-8.992zm21.826-6.751l6.842-2.997c1.242 2.936 5.389 4.178 8.507 4.178 2.24 0 4.965-.636 4.965-3.3 0-2.846-3.118-3.451-6.993-4.208-5.601-1.12-12.382-2.513-12.382-9.778 0-7.145 6.63-10.324 12.715-10.324 5.086 0 11.625 1.453 13.562 6.842l-6.569 2.846c-1.06-2.755-4.269-3.542-6.933-3.542-2.058 0-4.48.908-4.48 3.027 0 2.361 3.118 3.058 6.993 3.845 5.691 1.181 12.715 2.634 12.715 10.596 0 7.719-6.6 10.262-13.563 10.262-5.57 0-13.35-1.634-15.379-7.447z" fill="#000"/><rect x="60" y="351" width="360" height="77" rx="5" fill="#e42527"/><path d="M110.719 395.594l3.453-1.485c.937 2.61 3.25 3.953 6.031 3.953 2.109 0 4.328-1.109 4.328-3.5 0-2.531-2.5-2.984-5.281-3.484-3.547-.64-7.438-1.39-7.438-6.656 0-4.391 3.938-6.625 7.891-6.625 3.656 0 6.891 1.5 8.313 5.062l-3.25 1.469c-.969-2.016-2.797-3.234-5.11-3.234-1.859 0-3.718.781-3.718 3.015 0 2.469 2.312 2.907 5.093 3.407 3.594.64 7.719 1.359 7.719 6.703 0 4.64-4.328 7.093-8.547 7.093-4.109 0-8.234-1.468-9.484-5.718zM129.453 401l7.719-22.875h5.734L150.578 401H146l-1.703-5.281h-8.985L133.656 401h-4.203zm6.875-8.453h6.984l-3.484-10.844-3.5 10.844zM158.312 401l-7.734-22.875h4.594l5.969 18.422 5.906-18.422h4.172L163.438 401h-5.126zm15.282 0v-22.875h15.203v3.453h-10.766v6.141h8.75v3.265h-8.75v6.563h11.297V401h-15.734zm31.484 0v-9.734l-7.484-13.141h4.906l4.969 9.531 4.828-9.531h4.312l-7.047 13.141V401h-4.484zm23.125.312c-6.922 0-11.656-4.89-11.656-11.843 0-6.75 4.984-11.672 11.859-11.672s11.547 4.922 11.547 11.719c0 6.906-4.812 11.796-11.75 11.796zm.235-3.515c4.828 0 6.921-4 6.921-8.25 0-4.485-2.343-8.235-7.203-8.235-4.89 0-6.984 3.813-6.984 8.376 0 4.296 2.562 8.109 7.266 8.109zm14.89-19.672h4.438v13.813c0 3.39.781 5.859 4.781 5.859 4.015 0 4.891-2.516 4.891-6.109v-13.563h4.437v13.891c0 6.109-3.313 9.296-9.328 9.296-5.985 0-9.219-3.14-9.219-9.046v-14.141zM266.406 401v-22.875h8.282c4.578 0 8.609 1.687 8.609 6.875 0 3.266-1.953 5.375-5.063 6.141l6.438 9.859h-4.781l-5.953-9.219h-3.094V401h-4.438zm4.438-12.281h3.718c2.547 0 4.422-.969 4.422-3.703 0-2.828-2-3.5-4.422-3.5h-3.718v7.203zm22.094 6.875l3.453-1.485c.937 2.61 3.25 3.953 6.031 3.953 2.109 0 4.328-1.109 4.328-3.5 0-2.531-2.5-2.984-5.281-3.484-3.547-.64-7.438-1.39-7.438-6.656 0-4.391 3.938-6.625 7.891-6.625 3.656 0 6.89 1.5 8.312 5.062l-3.25 1.469c-.968-2.016-2.796-3.234-5.109-3.234-1.859 0-3.719.781-3.719 3.015 0 2.469 2.313 2.907 5.094 3.407 3.594.64 7.719 1.359 7.719 6.703 0 4.64-4.328 7.093-8.547 7.093-4.11 0-8.234-1.468-9.484-5.718zM314.5 401v-22.875h15.203v3.453h-10.765v6.141h8.75v3.265h-8.75v6.563h11.296V401H314.5zm17.266 0l7.718-22.875h5.735L352.891 401h-4.579l-1.703-5.281h-8.984L335.969 401h-4.203zm6.875-8.453h6.984l-3.484-10.844-3.5 10.844zM357.922 401v-19.422h-6.406v-3.453h17.234v3.453h-6.391V401h-4.437z" fill="#fff"/><path d="M634.676 60.094c0-6.872 5.067-11.878 12.081-11.878s11.757 5.007 11.757 11.939c0 7.034-4.906 12-11.96 12-7.074-.02-11.878-4.987-11.878-12.061zm19.135.081c0-4.561-2.392-8.392-7.338-8.392-4.986 0-7.115 3.872-7.115 8.534 0 4.378 2.615 8.25 7.399 8.25 4.926 0 7.054-4.074 7.054-8.392zm8.128-5.392h4.075v2.716c1.094-2.108 3.385-3.061 5.757-3.061 4.094 0 5.939 2.878 5.939 6.75V71.85h-4.135V61.594c0-2.392-1.075-3.791-3.487-3.791-2.554 0-4.074 1.581-4.074 4.034v10.014h-4.075V54.783zm35.25 13.339c-1.419 3-4.48 4.034-7.601 4.034-5.372 0-8.757-3.588-8.757-8.899 0-4.986 3.446-8.838 8.574-8.838 5.514 0 8.19 3.223 8.19 9.791h-12.609c0 2.878 1.663 4.986 4.764 4.986 1.845 0 3.365-.75 4.257-2.473l3.182 1.399zm-3.648-6.588c-.122-2.574-1.683-4.155-4.095-4.155-2.554 0-4.054 1.804-4.399 4.155h8.494zm-57.649-20.372l7.5-10.824h-6.73V28.21h10.257v1.054l-7.318 10.824h7.095v2.128h-10.804v-1.054zm17.432-9.405c3.122 0 5.514 2.189 5.514 5.331 0 3.223-2.514 5.351-5.615 5.351-3.122 0-5.635-2.169-5.635-5.291 0-3.243 2.655-5.392 5.736-5.392zm2.879 5.331c0-1.885-.953-3.466-2.98-3.466-2.068 0-2.899 1.642-2.899 3.527 0 1.824.973 3.365 2.96 3.365 2.067.02 2.919-1.622 2.919-3.426zm4.438-9.771h2.453v6.284c.669-1.277 2.007-1.845 3.426-1.845 2.452 0 3.689 1.723 3.689 4.054v6.426h-2.493v-6.182c0-1.48-.771-2.291-2.189-2.291-1.582 0-2.453.973-2.453 2.432v6.02h-2.453V27.317h.02zm16.886 4.44c3.121 0 5.513 2.189 5.513 5.331 0 3.223-2.513 5.351-5.615 5.351-3.121 0-5.635-2.169-5.635-5.291 0-3.243 2.655-5.392 5.737-5.392zm2.878 5.331c0-1.885-.953-3.466-2.98-3.466-2.067 0-2.898 1.642-2.898 3.527 0 1.824.973 3.365 2.959 3.365 2.047.02 2.919-1.622 2.919-3.426z" fill="#000"/><path d="M597.196 79.392c-.406 0-.791-.203-.994-.568-.324-.547-.121-1.257.426-1.581l23.878-13.784V35.871c0-.649.527-1.155 1.156-1.155s1.155.507 1.155 1.155v28.236c0 .405-.223.791-.567.993l-24.467 14.128c-.202.101-.405.162-.587.162z" fill="#e42527"/><path d="M597.196 79.392c-.203 0-.385-.061-.567-.162l-24.467-14.108c-.365-.203-.567-.588-.567-.993V35.892a1.14 1.14 0 1 1 2.311 0V63.48l23.878 13.784a1.18 1.18 0 0 1 .426 1.581c-.244.345-.629.547-1.014.547z" fill="#f9b21d"/><path d="M621.642 37.027a1.15 1.15 0 0 1-.568-.162l-23.878-13.784-23.878 13.784c-.548.324-1.257.122-1.581-.426s-.122-1.257.425-1.581l24.446-14.088c.365-.203.791-.203 1.156 0l24.466 14.108a1.18 1.18 0 0 1 .425 1.581 1.18 1.18 0 0 1-1.013.567z" fill="#226db4"/><path d="M597.196 62.446c-.406 0-.791-.203-.994-.568-.324-.547-.121-1.257.426-1.581l9.203-5.311V44.345a1.17 1.17 0 0 1 1.155-1.155 1.17 1.17 0 0 1 1.156 1.155v11.29c0 .405-.223.791-.568.993l-9.791 5.655a1.12 1.12 0 0 1-.587.162z" fill="#e42527"/><path d="M597.196 62.446c-.203 0-.385-.061-.567-.162l-9.791-5.635c-.365-.203-.567-.588-.567-.993v-11.29a1.17 1.17 0 0 1 1.155-1.155 1.17 1.17 0 0 1 1.155 1.155v10.622l9.203 5.311a1.18 1.18 0 0 1 .426 1.581c-.244.365-.629.568-1.014.568z" fill="#f9b21d"/><path d="M606.966 45.5c-.203 0-.385-.061-.567-.162l-9.203-5.311-9.223 5.311c-.547.324-1.257.122-1.581-.426s-.122-1.257.425-1.581l9.791-5.655c.365-.203.791-.203 1.155 0l9.791 5.655a1.18 1.18 0 0 1 .426 1.581c-.223.385-.608.588-1.014.588z" fill="#226db4"/><g fill="#089949"><path d="M597.196 51.155a1.15 1.15 0 0 1-.568-.162l-24.466-14.108a1.18 1.18 0 0 1-.426-1.581 1.18 1.18 0 0 1 1.581-.426l24.467 14.108a1.18 1.18 0 0 1 .425 1.581c-.243.385-.628.588-1.013.588z"/><path d="M597.196 51.155c-.406 0-.791-.203-.994-.568-.324-.547-.121-1.257.426-1.581l24.466-14.108c.548-.324 1.257-.122 1.581.426s.122 1.257-.425 1.581l-24.467 14.108c-.202.081-.405.142-.587.142z"/><path d="M597.196 79.392a1.17 1.17 0 0 1-1.155-1.155V50a1.17 1.17 0 0 1 1.155-1.155A1.17 1.17 0 0 1 598.352 50v28.236c-.02.628-.527 1.155-1.156 1.155z"/></g><g stroke="#000" stroke-width="2" stroke-linejoin="round"><path d="M95.933 56.844V84.61H33.996V43.138c0-2.289 1.855-4.144 4.144-4.144h26.817" stroke-linecap="round"/><path d="M30 84.609h69.941A5.39 5.39 0 0 1 94.551 90h-59.16A5.39 5.39 0 0 1 30 84.609zm28.442-27.697a5.81 5.81 0 1 0-11.471-1.858 5.81 5.81 0 1 0 11.471 1.858zm-2.857 7.437l-2.871 7.287-2.871-7.287c-3.968 0-7.178 3.21-7.178 7.178v5.689h20.113v-5.689c0-3.968-3.21-7.178-7.178-7.178h-.014z"/><path d="M95.227 30.014H73.068c-2.451 0-4.442 1.991-4.442 4.443v14.451c0 2.451 1.991 4.442 4.442 4.442v8.465l5.946-8.465h16.199c2.451 0 4.442-1.991 4.442-4.442V34.442c0-2.451-1.991-4.442-4.442-4.442l.014.014z" fill="#fff" fill-opacity=".8"/></g><path d="M90.445 41.675l-10.334-5.973v11.932l10.334-5.959z" fill="#e42527" stroke="#e42527" stroke-width="2" stroke-linejoin="round"/><path d="M70.077 67.437h20.072m-20.072 4.888h20.072M70.077 77.23h20.072" stroke-width="2" stroke-linejoin="round" stroke="#000" stroke-linecap="round"/></svg>