<svg xmlns="http://www.w3.org/2000/svg" xmlns:xlink="http://www.w3.org/1999/xlink" width="720" height="480" fill="none" xmlns:v="https://vecta.io/nano"><path fill="#f8f3e7" d="M0 0h720v480H0z"/><mask id="A" maskUnits="userSpaceOnUse" x="0" y="0" width="720" height="480" mask-type="alpha"><path fill="#d9d9d9" d="M0 0h720v480H0z"/></mask><g mask="url(#A)"><path fill-rule="evenodd" d="M8.304-86.875C42.529-95.437 71.89-65.713 102.401-48c30.413 17.656 72.918 27.855 80.133 62.274 7.15 34.105-23.791 63.578-48.626 88.022-18.012 17.73-44.892 16.179-67.89 26.665-32.763 14.938-58.25 56.559-92.861 46.63-35.597-10.212-51.83-53.321-57.845-89.862-5.505-33.442 11.533-63.992 27.609-93.83 16.826-31.23 30.97-70.164 65.384-78.773z" fill="#f0e7d3"/></g><path d="M77.988 267v-25.734h16.313v3.199H81.979v7.84h10.055v3.146H81.979v8.35h12.938V267H77.988zm18.248 0l6.662-9.668-6.222-9.158h4.306l4.254 6.416 4.219-6.416h3.955l-6.152 8.894 6.803 9.932h-4.36l-4.711-7.172-4.834 7.172h-3.92zm20.498 6.521v-25.365h3.745v3.129c1.265-2.18 4.095-3.48 6.539-3.48 5.765 0 8.507 4.57 8.507 9.703 0 5.308-2.935 9.844-8.507 9.844-2.479 0-5.274-1.125-6.539-3.375v9.544h-3.745zm9.475-9.193c4.166 0 5.502-3.182 5.502-6.873 0-3.428-1.74-6.627-5.713-6.627-3.955 0-5.678 3.199-5.678 6.785 0 3.832 1.934 6.715 5.889 6.715zM138.85 267v-26.033l3.744-1.653V267h-3.744zm16.595.352c-5.73 0-9.422-4.237-9.422-9.914 0-5.52 3.991-9.651 9.633-9.651 5.713 0 9.44 4.236 9.44 9.756 0 5.713-4.008 9.809-9.651 9.809zm.123-2.989c4.061 0 5.713-3.234 5.713-6.767 0-3.674-1.793-6.821-5.783-6.821-4.06 0-5.66 3.235-5.66 6.803 0 3.779 1.793 6.785 5.73 6.785zM168.367 267v-18.844h3.744v3.463c1.336-2.584 3.27-3.797 6.153-3.797v3.498c-3.85.141-6.153 1.477-6.153 5.625V267h-3.744zm24.647-5.537l3.093 1.318c-1.652 3.199-4.605 4.571-7.98 4.571-5.941 0-9.439-4.219-9.439-9.704 0-5.537 3.55-9.843 9.105-9.843 6.592 0 8.684 4.675 8.684 10.547h-13.975c0 3.462 1.846 6.099 5.449 6.099 2.303 0 4.061-1.09 5.063-2.988zm-10.407-5.783h10.161c-.194-3.041-1.776-5.028-4.834-5.028-3.2 0-4.905 2.198-5.327 5.028zm32.014 8.156v3.023a9.2 9.2 0 0 1-2.812.422c-3.498 0-5.362-1.722-5.362-5.291v-10.916h-2.636v-2.918h2.636v-3.709l3.709-1.617v5.326h4.237v2.918h-4.237v10.565c0 1.511.598 2.584 2.356 2.584.633 0 1.371-.141 2.109-.387zM217.77 267v-18.844h3.744v3.463c1.336-2.584 3.269-3.797 6.152-3.797v3.498c-3.85.141-6.152 1.477-6.152 5.625V267h-3.744zm23.152 0v-2.338c-1.389 1.881-3.533 2.69-5.801 2.69-3.445 0-6.293-1.899-6.293-5.573 0-5.027 5.414-5.906 9.721-5.906h2.338c0-3.023-.457-5.15-3.991-5.15-1.898 0-3.779 1.142-4.429 2.97l-3.059-1.318c1.354-3.217 4.465-4.57 7.77-4.57 4.359 0 7.418 2.355 7.418 6.873V267h-3.674zm-.035-8.684h-2.373c-2.268 0-5.977.317-5.977 3.498 0 1.916 1.336 2.743 3.27 2.743 2.461 0 5.08-1.371 5.08-4.149v-2.092zm7.736-15.574c0-1.265 1.055-2.267 2.32-2.267 1.248 0 2.321.966 2.321 2.267 0 1.266-1.055 2.268-2.321 2.268s-2.32-1.002-2.32-2.268zm.51 24.258v-18.791h3.709V267h-3.709zm8.422 0v-18.844h3.744v2.989c1.125-2.338 3.621-3.34 6.17-3.34 4.57 0 6.715 3.252 6.715 7.593V267h-3.745v-11.496c0-2.9-1.371-4.553-4.253-4.553-3.041 0-4.887 1.846-4.887 4.799V267h-3.744zm20.638-24.258c0-1.265 1.055-2.267 2.321-2.267 1.248 0 2.32.966 2.32 2.267 0 1.266-1.055 2.268-2.32 2.268s-2.321-1.002-2.321-2.268zm.51 24.258v-18.791h3.709V267h-3.709zm8.422 0v-18.844h3.744v2.989c1.125-2.338 3.621-3.34 6.17-3.34 4.57 0 6.715 3.252 6.715 7.593V267h-3.744v-11.496c0-2.9-1.371-4.553-4.254-4.553-3.041 0-4.887 1.846-4.887 4.799V267h-3.744zm20.217 2.338l2.953-1.301c.984 2.197 3.428 2.918 5.643 2.918 3.462 0 5.871-1.758 5.871-5.396v-2.778c-1.319 2.215-3.973 3.533-6.522 3.533-5.291 0-8.42-4.166-8.42-9.087 0-5.133 3.41-9.422 8.613-9.422 2.549 0 5.01 1.019 6.329 3.269v-2.918h3.709v17.508c0 5.731-4.307 8.244-9.668 8.244-3.481 0-6.909-1.054-8.508-4.57zm8.806-5.977c3.727 0 5.766-2.9 5.766-6.468 0-3.463-1.916-6.135-5.572-6.135-3.85 0-5.66 2.953-5.66 6.486 0 3.182 2.091 6.117 5.466 6.117zm33.034-1.898l3.093 1.318c-1.652 3.199-4.605 4.571-7.98 4.571-5.941 0-9.44-4.219-9.44-9.704 0-5.537 3.551-9.843 9.106-9.843 6.592 0 8.684 4.675 8.684 10.547H338.67c0 3.462 1.846 6.099 5.449 6.099 2.303 0 4.061-1.09 5.063-2.988zm-10.407-5.783h10.161c-.194-3.041-1.776-5.028-4.834-5.028-3.2 0-4.905 2.198-5.327 5.028zM360.504 267l-6.768-18.826h4.026l5.115 15.012 5.08-15.012h3.744L365.004 267h-4.5zm26.51-5.537l3.093 1.318c-1.652 3.199-4.605 4.571-7.98 4.571-5.941 0-9.439-4.219-9.439-9.704 0-5.537 3.55-9.843 9.105-9.843 6.592 0 8.684 4.675 8.684 10.547h-13.975c0 3.462 1.846 6.099 5.449 6.099 2.303 0 4.061-1.09 5.063-2.988zm-10.407-5.783h10.161c-.194-3.041-1.776-5.028-4.834-5.028-3.2 0-4.905 2.198-5.327 5.028zM393.695 267v-18.844h3.744v2.989c1.125-2.338 3.622-3.34 6.17-3.34 4.571 0 6.715 3.252 6.715 7.593V267h-3.744v-11.496c0-2.9-1.371-4.553-4.254-4.553-3.041 0-4.887 1.846-4.887 4.799V267h-3.744zm29.938-3.164v3.023c-.897.282-1.811.422-2.813.422-3.498 0-5.361-1.722-5.361-5.291v-10.916h-2.637v-2.918h2.637v-3.709l3.709-1.617v5.326h4.236v2.918h-4.236v10.565c0 1.511.598 2.584 2.355 2.584.633 0 1.372-.141 2.11-.387zm1.672-1.195l2.847-1.248c.703 1.951 2.602 3.093 4.641 3.093 1.828 0 3.779-.58 3.779-2.601 0-2.11-2.127-2.602-4.588-3.164-2.812-.651-6.082-1.407-6.082-5.432 0-3.568 3.516-5.484 6.698-5.484 3.023 0 5.748 1.371 7.066 4.183l-2.812 1.231c-.792-1.74-2.409-2.549-4.149-2.549-1.582 0-3.34.668-3.34 2.426 0 1.916 2.057 2.338 4.36 2.812 2.988.615 6.416 1.336 6.416 5.485 0 4.236-3.551 5.959-7.225 5.959-3.357 0-6.486-1.442-7.611-4.711zM459.973 267v-2.338c-1.389 1.881-3.534 2.69-5.801 2.69-3.445 0-6.293-1.899-6.293-5.573 0-5.027 5.414-5.906 9.721-5.906h2.338c0-3.023-.458-5.15-3.991-5.15-1.898 0-3.779 1.142-4.429 2.97l-3.059-1.318c1.353-3.217 4.465-4.57 7.77-4.57 4.359 0 7.417 2.355 7.417 6.873V267h-3.673zm-.035-8.684h-2.374c-2.267 0-5.976.317-5.976 3.498 0 1.916 1.336 2.743 3.269 2.743 2.461 0 5.081-1.371 5.081-4.149v-2.092zm7.964 8.684v-18.844h3.744v2.989c1.125-2.338 3.622-3.34 6.17-3.34 4.571 0 6.715 3.252 6.715 7.593V267h-3.744v-11.496c0-2.9-1.371-4.553-4.254-4.553-3.041 0-4.887 1.846-4.887 4.799V267h-3.744zm34.789 0v-3.199c-1.212 2.215-4.13 3.551-6.591 3.551-5.713 0-8.455-4.413-8.455-9.704 0-5.203 3.111-9.861 8.613-9.861 2.619 0 5.115 1.055 6.433 3.358v-11.848h3.745V267h-3.745zm-5.8-2.672c4.148 0 5.941-3.094 5.941-6.908 0-3.691-1.687-6.609-5.678-6.609-4.236 0-5.66 3.287-5.66 6.978 0 3.393 1.652 6.539 5.397 6.539zM81.803 313l-5.977-18.826h3.99L84.07 308.5l4.254-14.326h3.164l4.113 14.326 4.307-14.326h3.709L97.57 313h-3.92l-3.85-13.377L85.723 313h-3.92zm31.677.352c-5.73 0-9.421-4.237-9.421-9.914 0-5.52 3.99-9.651 9.632-9.651 5.713 0 9.44 4.236 9.44 9.756 0 5.713-4.008 9.809-9.651 9.809zm.124-2.989c4.06 0 5.712-3.234 5.712-6.767 0-3.674-1.793-6.821-5.783-6.821-4.06 0-5.66 3.235-5.66 6.803 0 3.779 1.793 6.785 5.731 6.785zM126.402 313v-18.844h3.744v3.463c1.336-2.584 3.27-3.797 6.153-3.797v3.498c-3.85.141-6.153 1.477-6.153 5.625V313h-3.744zm12.606 0v-27.703h3.744v17.279l7.453-8.42h4.166l-7.875 8.666L155.021 313h-4.394l-7.875-9.492V313h-3.744zm15.98-4.359l2.848-1.248c.703 1.951 2.602 3.093 4.641 3.093 1.828 0 3.779-.58 3.779-2.601 0-2.11-2.127-2.602-4.588-3.164-2.813-.651-6.082-1.407-6.082-5.432 0-3.568 3.516-5.484 6.697-5.484 3.024 0 5.748 1.371 7.067 4.183l-2.813 1.231c-.791-1.74-2.408-2.549-4.148-2.549-1.582 0-3.34.668-3.34 2.426 0 1.916 2.056 2.338 4.359 2.812 2.988.615 6.416 1.336 6.416 5.485 0 4.236-3.551 5.959-7.224 5.959-3.358 0-6.487-1.442-7.612-4.711zM172.973 313v-27.686h3.744v11.831c1.125-2.338 3.568-3.358 6.135-3.358 4.57 0 6.82 3.199 6.82 7.611V313h-3.744v-11.496c0-2.953-1.459-4.57-4.307-4.57-3.111 0-4.904 1.916-4.904 4.816V313h-3.744zm29.234.352c-5.73 0-9.422-4.237-9.422-9.914 0-5.52 3.99-9.651 9.633-9.651 5.713 0 9.439 4.236 9.439 9.756 0 5.713-4.007 9.809-9.65 9.809zm.123-2.989c4.061 0 5.713-3.234 5.713-6.767 0-3.674-1.793-6.821-5.783-6.821-4.061 0-5.66 3.235-5.66 6.803 0 3.779 1.793 6.785 5.73 6.785zm12.799 9.158v-25.365h3.744v3.129c1.266-2.18 4.096-3.48 6.539-3.48 5.766 0 8.508 4.57 8.508 9.703 0 5.308-2.936 9.844-8.508 9.844-2.478 0-5.273-1.125-6.539-3.375v9.544h-3.744zm9.475-9.193c4.166 0 5.501-3.182 5.501-6.873 0-3.428-1.74-6.627-5.712-6.627-3.955 0-5.678 3.199-5.678 6.785 0 3.832 1.933 6.715 5.889 6.715zm11.111-1.687l2.847-1.248c.704 1.951 2.602 3.093 4.641 3.093 1.828 0 3.779-.58 3.779-2.601 0-2.11-2.127-2.602-4.587-3.164-2.813-.651-6.083-1.407-6.083-5.432 0-3.568 3.516-5.484 6.698-5.484 3.023 0 5.748 1.371 7.066 4.183l-2.812 1.231c-.791-1.74-2.409-2.549-4.149-2.549-1.582 0-3.34.668-3.34 2.426 0 1.916 2.057 2.338 4.36 2.812 2.988.615 6.416 1.336 6.416 5.485 0 4.236-3.551 5.959-7.225 5.959-3.357 0-6.486-1.442-7.611-4.711zM259.73 313v-27.686h3.745v11.831c1.125-2.338 3.568-3.358 6.134-3.358 4.571 0 6.821 3.199 6.821 7.611V313h-3.744v-11.496c0-2.953-1.459-4.57-4.307-4.57-3.111 0-4.904 1.916-4.904 4.816V313h-3.745zm31.766 0v-2.338c-1.389 1.881-3.533 2.69-5.801 2.69-3.445 0-6.293-1.899-6.293-5.573 0-5.027 5.414-5.906 9.721-5.906h2.338c0-3.023-.457-5.15-3.99-5.15-1.899 0-3.78 1.142-4.43 2.97l-3.059-1.318c1.354-3.217 4.465-4.57 7.77-4.57 4.359 0 7.418 2.355 7.418 6.873V313h-3.674zm-.035-8.684h-2.373c-2.268 0-5.977.317-5.977 3.498 0 1.916 1.336 2.743 3.27 2.743 2.461 0 5.08-1.371 5.08-4.149v-2.092zm7.965 15.205v-25.365h3.744v3.129c1.266-2.18 4.096-3.48 6.539-3.48 5.766 0 8.508 4.57 8.508 9.703 0 5.308-2.936 9.844-8.508 9.844-2.479 0-5.273-1.125-6.539-3.375v9.544h-3.744zm9.474-9.193c4.166 0 5.502-3.182 5.502-6.873 0-3.428-1.74-6.627-5.713-6.627-3.955 0-5.677 3.199-5.677 6.785 0 3.832 1.933 6.715 5.888 6.715zm12.588 9.193v-25.365h3.744v3.129c1.266-2.18 4.096-3.48 6.539-3.48 5.766 0 8.508 4.57 8.508 9.703 0 5.308-2.935 9.844-8.508 9.844-2.478 0-5.273-1.125-6.539-3.375v9.544h-3.744zm9.475-9.193c4.166 0 5.502-3.182 5.502-6.873 0-3.428-1.74-6.627-5.713-6.627-3.955 0-5.678 3.199-5.678 6.785 0 3.832 1.934 6.715 5.889 6.715zm25.613-2.865l3.094 1.318c-1.652 3.199-4.606 4.571-7.981 4.571-5.941 0-9.439-4.219-9.439-9.704 0-5.537 3.551-9.843 9.105-9.843 6.592 0 8.684 4.675 8.684 10.547h-13.975c0 3.462 1.846 6.099 5.45 6.099 2.302 0 4.06-1.09 5.062-2.988zm-10.406-5.783h10.16c-.193-3.041-1.775-5.028-4.834-5.028-3.199 0-4.904 2.198-5.326 5.028zM363.258 313v-18.844h3.744v2.989c1.125-2.338 3.621-3.34 6.17-3.34 4.57 0 6.715 3.252 6.715 7.593V313h-3.744v-11.496c0-2.9-1.372-4.553-4.254-4.553-3.041 0-4.887 1.846-4.887 4.799V313h-3.744zm20.638-24.258c0-1.265 1.055-2.267 2.321-2.267 1.248 0 2.32.966 2.32 2.267 0 1.266-1.055 2.268-2.32 2.268s-2.321-1.002-2.321-2.268zm.51 24.258v-18.791h3.709V313h-3.709zm8.422 0v-18.844h3.744v2.989c1.125-2.338 3.621-3.34 6.17-3.34 4.57 0 6.715 3.252 6.715 7.593V313h-3.744v-11.496c0-2.9-1.371-4.553-4.254-4.553-3.041 0-4.887 1.846-4.887 4.799V313h-3.744zm20.217 2.338l2.953-1.301c.984 2.197 3.428 2.918 5.643 2.918 3.463 0 5.871-1.758 5.871-5.396v-2.778c-1.319 2.215-3.973 3.533-6.522 3.533-5.291 0-8.42-4.166-8.42-9.087 0-5.133 3.41-9.422 8.614-9.422 2.548 0 5.009 1.019 6.328 3.269v-2.918h3.709v17.508c0 5.731-4.307 8.244-9.668 8.244-3.481 0-6.908-1.054-8.508-4.57zm8.807-5.977c3.726 0 5.765-2.9 5.765-6.468 0-3.463-1.916-6.135-5.572-6.135-3.85 0-5.66 2.953-5.66 6.486 0 3.182 2.092 6.117 5.467 6.117zM441.859 313v-18.844h3.745v2.989c1.125-2.338 3.621-3.34 6.169-3.34 4.571 0 6.715 3.252 6.715 7.593V313h-3.744v-11.496c0-2.9-1.371-4.553-4.254-4.553-3.041 0-4.886 1.846-4.886 4.799V313h-3.745zm34.069-5.537l3.093 1.318c-1.652 3.199-4.605 4.571-7.98 4.571-5.941 0-9.439-4.219-9.439-9.704 0-5.537 3.55-9.843 9.105-9.843 6.592 0 8.684 4.675 8.684 10.547h-13.975c0 3.462 1.846 6.099 5.449 6.099 2.303 0 4.061-1.09 5.063-2.988zm-10.407-5.783h10.161c-.194-3.041-1.776-5.028-4.834-5.028-3.2 0-4.905 2.198-5.327 5.028zM493.367 313v-2.338c-1.388 1.881-3.533 2.69-5.801 2.69-3.445 0-6.293-1.899-6.293-5.573 0-5.027 5.415-5.906 9.721-5.906h2.338c0-3.023-.457-5.15-3.99-5.15-1.899 0-3.78 1.142-4.43 2.97l-3.058-1.318c1.353-3.217 4.464-4.57 7.769-4.57 4.359 0 7.418 2.355 7.418 6.873V313h-3.674zm-.035-8.684h-2.373c-2.268 0-5.977.317-5.977 3.498 0 1.916 1.336 2.743 3.27 2.743 2.461 0 5.08-1.371 5.08-4.149v-2.092zm7.965 8.684v-18.844h3.744v3.463c1.336-2.584 3.27-3.797 6.152-3.797v3.498c-3.849.141-6.152 1.477-6.152 5.625V313h-3.744zm20.816 6.521l3.498-8.472-7.347-16.875h4.025l5.256 12.779 4.904-12.779h3.709l-10.336 25.347h-3.709zm24.453-6.169c-5.73 0-9.421-4.237-9.421-9.914 0-5.52 3.99-9.651 9.632-9.651 5.713 0 9.44 4.236 9.44 9.756 0 5.713-4.008 9.809-9.651 9.809zm.123-2.989c4.061 0 5.713-3.234 5.713-6.767 0-3.674-1.793-6.821-5.783-6.821-4.06 0-5.66 3.235-5.66 6.803 0 3.779 1.793 6.785 5.73 6.785zM572.127 313v-2.988c-1.125 2.302-3.445 3.34-6.082 3.34-4.359 0-6.697-2.831-6.697-7.19v-11.988h3.691v11.654c0 2.883 1.424 4.43 4.201 4.43 3.076 0 4.887-1.916 4.887-4.781v-11.303h3.691V313h-3.691zm8.51-2.373c0-1.477 1.195-2.566 2.619-2.566 1.459 0 2.601 1.142 2.601 2.566 0 1.441-1.142 2.584-2.601 2.584-1.442 0-2.619-1.107-2.619-2.584zM87.412 197l-11.413-44.32h10.172l7.568 30.606 8.174-30.606h8.567l8.477 30.818 7.811-30.818h9.324L124.679 197h-10.233l-8.628-30.637L97.069 197h-9.657zm49.496-16.105c0-10.203 7.266-17.075 17.286-17.075 10.051 0 16.863 6.933 16.863 16.923 0 10.233-7.175 16.953-17.196 16.953-10.111 0-16.953-6.872-16.953-16.801zm17.165 9.959c6.085 0 7.871-5.025 7.871-9.99 0-5.419-2.119-10.202-8.022-10.202-6.025 0-7.841 5.026-7.841 10.051 0 5.419 2.089 10.141 7.992 10.141zM176.081 197v-32.423h8.991v6.206c2.15-4.511 5.51-6.69 10.475-6.69v8.355c-5.873 0-10.475 1.574-10.475 8.295V197h-8.991zm23.764 0v-47.105h8.991v28.396l10.414-13.714h9.566L217.01 179.32 229.725 197h-10.172l-10.717-15.318V197h-8.991zm30.787-6.751l6.842-2.997c1.241 2.936 5.388 4.178 8.506 4.178 2.241 0 4.965-.636 4.965-3.3 0-2.846-3.118-3.451-6.993-4.208-5.6-1.12-12.382-2.513-12.382-9.778 0-7.145 6.63-10.324 12.715-10.324 5.086 0 11.625 1.453 13.563 6.842l-6.57 2.846c-1.059-2.755-4.268-3.542-6.932-3.542-2.059 0-4.481.908-4.481 3.027 0 2.361 3.118 3.058 6.993 3.845 5.692 1.181 12.715 2.634 12.715 10.596 0 7.719-6.599 10.262-13.562 10.262-5.571 0-13.351-1.634-15.379-7.447zM264.265 197v-47.105h8.991v19.829c2.089-3.996 6.509-5.904 10.989-5.904 7.508 0 11.08 5.389 11.08 12.534V197h-8.991v-19.345c0-4.147-2.089-6.509-6.206-6.509-4.541 0-6.872 2.846-6.872 7.145V197h-8.991zm35.782-16.105c0-10.203 7.265-17.075 17.286-17.075 10.051 0 16.862 6.933 16.862 16.923 0 10.233-7.174 16.953-17.195 16.953-10.111 0-16.953-6.872-16.953-16.801zm17.165 9.959c6.085 0 7.871-5.025 7.871-9.99 0-5.419-2.119-10.202-8.022-10.202-6.025 0-7.841 5.026-7.841 10.051 0 5.419 2.089 10.141 7.992 10.141zm22.008 17.196v-43.473h8.991v5.086c2.18-3.693 6.418-5.843 10.656-5.843 9.9 0 14.471 8.144 14.471 16.893 0 9.052-4.904 16.983-14.471 16.983-4.178 0-8.567-1.877-10.656-5.661v16.015h-8.991zm16.983-17.377c6.206 0 8.023-4.783 8.023-10.172 0-5.147-2.362-9.778-8.205-9.778-6.024 0-8.113 4.904-8.113 10.05 0 5.601 2.452 9.9 8.295 9.9zm19.798-.424l6.842-2.997c1.241 2.936 5.388 4.178 8.507 4.178 2.24 0 4.964-.636 4.964-3.3 0-2.846-3.118-3.451-6.993-4.208-5.6-1.12-12.382-2.513-12.382-9.778 0-7.145 6.63-10.324 12.715-10.324 5.086 0 11.625 1.453 13.563 6.842l-6.57 2.846c-1.059-2.755-4.268-3.542-6.932-3.542-2.059 0-4.481.908-4.481 3.027 0 2.361 3.119 3.058 6.994 3.845 5.691 1.181 12.714 2.634 12.714 10.596 0 7.719-6.599 10.262-13.562 10.262-5.57 0-13.351-1.634-15.379-7.447z" fill="#000"/><rect x="75" y="353" width="307" height="77" rx="5" fill="#e42527"/><path d="M127.406 403v-22.875h4.438v19.422h10.109V403h-14.547zm17.656 0v-22.875h15.204v3.453H149.5v6.141h8.75v3.265h-8.75v6.563h11.297V403h-15.735zm17.266 0l7.719-22.875h5.734L183.453 403h-4.578l-1.703-5.281h-8.984L166.531 403h-4.203zm6.875-8.453h6.985l-3.485-10.844-3.5 10.844zM186.375 403v-22.875h8.281c4.578 0 8.61 1.687 8.61 6.875 0 3.266-1.954 5.375-5.063 6.141l6.438 9.859h-4.782l-5.953-9.219h-3.094V403h-4.437zm4.437-12.281h3.719c2.547 0 4.422-.969 4.422-3.703 0-2.828-2-3.5-4.422-3.5h-3.719v7.203zM207.562 403v-22.875h5.25l9.985 16.344v-16.344h4V403h-4.594l-10.641-17.406V403h-4zm30.938 0v-22.875h5.609l6.594 16.672 6.547-16.672h5.484V403h-4.093v-17.438L251.438 403h-1.969l-6.969-17.438V403h-4zm39.422.312c-6.922 0-11.656-4.89-11.656-11.843 0-6.75 4.984-11.672 11.859-11.672s11.547 4.922 11.547 11.719c0 6.906-4.813 11.796-11.75 11.796zm.234-3.515c4.828 0 6.922-4 6.922-8.25 0-4.485-2.344-8.235-7.203-8.235-4.891 0-6.984 3.813-6.984 8.376 0 4.296 2.562 8.109 7.265 8.109zM293.219 403v-22.875h8.281c4.578 0 8.609 1.687 8.609 6.875 0 3.266-1.953 5.375-5.062 6.141l6.437 9.859h-4.781l-5.953-9.219h-3.094V403h-4.437zm4.437-12.281h3.719c2.547 0 4.422-.969 4.422-3.703 0-2.828-2-3.5-4.422-3.5h-3.719v7.203zM314.406 403v-22.875h15.203v3.453h-10.765v6.141h8.75v3.265h-8.75v6.563h11.297V403h-15.735z" fill="#fff"/><path d="M634.676 60.094c0-6.872 5.067-11.878 12.081-11.878s11.757 5.007 11.757 11.939c0 7.034-4.906 12-11.96 12-7.074-.02-11.878-4.987-11.878-12.061zm19.135.081c0-4.561-2.392-8.392-7.338-8.392-4.986 0-7.115 3.872-7.115 8.534 0 4.378 2.615 8.25 7.399 8.25 4.926 0 7.054-4.074 7.054-8.392zm8.128-5.392h4.075v2.716c1.094-2.108 3.385-3.061 5.757-3.061 4.094 0 5.939 2.878 5.939 6.75V71.85h-4.135V61.594c0-2.392-1.075-3.791-3.487-3.791-2.554 0-4.074 1.581-4.074 4.034v10.014h-4.075V54.783zm35.25 13.339c-1.419 3-4.48 4.034-7.601 4.034-5.372 0-8.757-3.588-8.757-8.899 0-4.986 3.446-8.838 8.574-8.838 5.514 0 8.19 3.223 8.19 9.791h-12.609c0 2.878 1.663 4.986 4.764 4.986 1.845 0 3.365-.75 4.257-2.473l3.182 1.399zm-3.648-6.588c-.122-2.574-1.683-4.155-4.095-4.155-2.554 0-4.054 1.804-4.399 4.155h8.494zm-57.649-20.372l7.5-10.824h-6.73V28.21h10.257v1.054l-7.318 10.824h7.095v2.128h-10.804v-1.054zm17.432-9.405c3.122 0 5.514 2.189 5.514 5.331 0 3.223-2.514 5.351-5.615 5.351-3.122 0-5.635-2.169-5.635-5.291 0-3.243 2.655-5.392 5.736-5.392zm2.879 5.331c0-1.885-.953-3.466-2.98-3.466-2.068 0-2.899 1.642-2.899 3.527 0 1.824.973 3.365 2.96 3.365 2.067.02 2.919-1.622 2.919-3.426zm4.438-9.771h2.453v6.284c.669-1.277 2.007-1.845 3.426-1.845 2.452 0 3.689 1.723 3.689 4.054v6.426h-2.493v-6.182c0-1.48-.771-2.291-2.189-2.291-1.582 0-2.453.973-2.453 2.432v6.02h-2.453V27.317h.02zm16.886 4.44c3.121 0 5.513 2.189 5.513 5.331 0 3.223-2.513 5.351-5.615 5.351-3.121 0-5.635-2.169-5.635-5.291 0-3.243 2.655-5.392 5.737-5.392zm2.878 5.331c0-1.885-.953-3.466-2.98-3.466-2.067 0-2.898 1.642-2.898 3.527 0 1.824.972 3.365 2.959 3.365 2.047.02 2.919-1.622 2.919-3.426z" fill="#000"/><path d="M597.196 79.392c-.406 0-.791-.203-.994-.568-.324-.547-.121-1.257.426-1.581l23.878-13.784V35.871c0-.649.527-1.155 1.156-1.155s1.155.507 1.155 1.155v28.236c0 .405-.223.791-.567.993l-24.467 14.128c-.202.101-.405.162-.587.162z" fill="#e42527"/><path d="M597.196 79.392c-.203 0-.385-.061-.567-.162l-24.467-14.108c-.365-.203-.567-.588-.567-.993V35.892a1.14 1.14 0 1 1 2.311 0V63.48l23.878 13.784a1.18 1.18 0 0 1 .426 1.581c-.244.345-.629.547-1.014.547z" fill="#f9b21d"/><path d="M621.642 37.027a1.15 1.15 0 0 1-.568-.162l-23.878-13.784-23.878 13.784c-.548.324-1.257.122-1.581-.426s-.122-1.257.425-1.581l24.446-14.088c.365-.203.791-.203 1.156 0l24.466 14.108a1.18 1.18 0 0 1 .425 1.581 1.18 1.18 0 0 1-1.013.567z" fill="#226db4"/><path d="M597.196 62.446c-.406 0-.791-.203-.994-.568-.324-.547-.121-1.257.426-1.581l9.203-5.311V44.345a1.17 1.17 0 0 1 1.155-1.155 1.17 1.17 0 0 1 1.156 1.155v11.29c0 .405-.223.791-.568.993l-9.791 5.655a1.12 1.12 0 0 1-.587.162z" fill="#e42527"/><path d="M597.196 62.446c-.203 0-.385-.061-.567-.162l-9.791-5.635c-.365-.203-.567-.588-.567-.993v-11.29a1.17 1.17 0 0 1 1.155-1.155 1.17 1.17 0 0 1 1.155 1.155v10.622l9.203 5.311a1.18 1.18 0 0 1 .426 1.581c-.244.365-.629.568-1.014.568z" fill="#f9b21d"/><path d="M606.966 45.5c-.203 0-.385-.061-.567-.162l-9.203-5.311-9.223 5.311c-.547.324-1.257.122-1.581-.426s-.122-1.257.425-1.581l9.791-5.655c.365-.203.791-.203 1.155 0l9.791 5.655a1.18 1.18 0 0 1 .426 1.581c-.223.385-.608.588-1.014.588z" fill="#226db4"/><g fill="#089949"><path d="M597.196 51.155a1.15 1.15 0 0 1-.568-.162l-24.466-14.108a1.18 1.18 0 0 1-.426-1.581 1.18 1.18 0 0 1 1.581-.426l24.467 14.108a1.18 1.18 0 0 1 .425 1.581c-.243.385-.628.588-1.013.588z"/><path d="M597.196 51.155c-.406 0-.791-.203-.994-.568-.324-.547-.121-1.257.426-1.581l24.466-14.108c.548-.324 1.257-.122 1.581.426s.122 1.257-.425 1.581l-24.467 14.108c-.202.081-.405.142-.587.142z"/><path d="M597.196 79.392a1.17 1.17 0 0 1-1.155-1.155V50a1.17 1.17 0 0 1 1.155-1.155A1.17 1.17 0 0 1 598.352 50v28.236c-.02.628-.527 1.155-1.156 1.155z"/></g><g clip-path="url(#B)"><path fill="#fff" d="M32 37h63v40H32z"/><g fill="#333"><path d="M58.956 67.2c-.316 0-.601-.142-.806-.395l-5.99-7.935c-.237-.3-.269-.711-.095-1.059 4.599-9.167 13.625-14.636 24.183-14.636h3.604c.316 0 .616.158.79.411.19.253.253.569.158.869l-.964 3.414C76.959 58.048 69.214 65.271 59.13 67.184c-.063 0-.126.016-.19.016h.016zm-4.805-9.041l5.232 6.923c9.041-1.944 15.948-8.535 18.556-17.766l.601-2.134h-2.229-.047c-9.563 0-17.782 4.837-22.112 12.992v-.016z"/><path d="M77.512 52.342h-.063c-1.296-.095-2.956-1.264-4.315-3.082a11.4 11.4 0 0 1-1.106-1.786c-.253-.49-.047-1.091.458-1.343.49-.237 1.091-.047 1.343.458.237.49.553.98.917 1.47 1.217 1.612 2.402 2.26 2.861 2.292.553.032.964.522.933 1.075a1 1 0 0 1-.996.933l-.032-.016z"/><use xlink:href="#C"/><use xlink:href="#C"/><path d="M48.24 59.945c-.316 0-.601-.142-.806-.395l-1.375-1.818a1 1 0 0 1-.047-1.138l.885-1.375c2.134-3.335 6.227-4.758 10.163-3.525.332.095.569.363.664.695a1 1 0 0 1-.221.933c-2.355 2.655-3.62 5.358-3.635 5.374-.142.3-.427.522-.759.569l-4.742.695h-.142l.016-.016zm-.158-2.877l.601.79 3.635-.537c.395-.774 1.28-2.339 2.624-4.062-2.545-.237-4.979.869-6.338 3.003l-.506.79-.016.016zm10.29 16.312c-.316 0-.601-.142-.806-.395l-1.375-1.818c-.221-.284-.269-.68-.111-1.011l1.96-4.362c.142-.3.427-.522.759-.585.032 0 2.972-.49 6.164-2.023.3-.142.664-.127.964.047a.99.99 0 0 1 .474.838c.095 4.125-2.387 7.666-6.18 8.82l-1.565.474a.89.89 0 0 1-.285.047v-.032zm-.221-2.956l.601.79.901-.269c2.434-.727 4.157-2.766 4.631-5.279a27.18 27.18 0 0 1-4.615 1.407l-1.501 3.351h-.016zm-5.533-4.663a1.05 1.05 0 0 1-.806-.395c-.332-.443-.253-1.075.19-1.407l8.472-6.401c.443-.332 1.075-.253 1.407.19s.253 1.075-.19 1.407l-8.472 6.401c-.174.142-.395.205-.601.205z"/></g><circle cx="67.5" cy="53.5" r="4.5" fill="#e42527"/><g fill="#333"><path d="M95.705 78.453H30.996a.99.99 0 0 1-.996-.996V36.536a.99.99 0 0 1 .996-.996h64.709a.99.99 0 0 1 .996.996v40.906a.99.99 0 0 1-.996.996v.016zm-63.698-2.007h62.702V37.547H32.007v38.898z"/><path d="M46.865 89.944a.9.9 0 0 1-.348-.063c-.522-.19-.79-.759-.601-1.28l3.999-10.969c.19-.522.759-.79 1.28-.601s.79.759.601 1.28L47.797 89.28c-.142.411-.537.664-.948.664h.016zM65.5 37.548a.9.9 0 0 1-.348-.063c-.522-.19-.79-.759-.601-1.28l2.007-5.485c.19-.522.759-.79 1.28-.601s.79.759.601 1.28l-2.007 5.485c-.142.411-.537.664-.948.664h.016zm-4.283 0c-.411 0-.79-.253-.948-.664L58.261 31.4c-.19-.522.079-1.091.601-1.28s1.091.079 1.28.601l2.007 5.485c.19.522-.079 1.091-.601 1.28a.9.9 0 0 1-.348.063h.016zm19.804 52.396c-.411 0-.79-.253-.948-.664l-3.999-10.969c-.19-.522.079-1.091.601-1.28s1.091.079 1.28.601L81.954 88.6c.19.522-.079 1.091-.601 1.28a.9.9 0 0 1-.348.063h.016z"/></g></g><defs><clipPath id="B"><path fill="#fff" transform="translate(30 30)" d="M0 0h66.716v60H0z"/></clipPath><path id="C" d="M67.681 57.352c-.19 0-.364 0-.553-.032-1.043-.142-1.976-.695-2.624-1.533a3.9 3.9 0 0 1-.759-2.94c.142-1.043.696-1.976 1.533-2.624 1.739-1.312 4.236-.964 5.548.774s.964 4.236-.774 5.548a3.95 3.95 0 0 1-2.387.806h.016zm0-5.927c-.411 0-.822.126-1.186.395-.869.648-1.027 1.881-.379 2.75.316.411.775.695 1.296.759.522.079 1.027-.063 1.454-.379.411-.316.695-.774.759-1.296.079-.522-.063-1.027-.379-1.454a1.97 1.97 0 0 0-1.565-.774z"/></defs></svg>