<svg xmlns="http://www.w3.org/2000/svg" xmlns:xlink="http://www.w3.org/1999/xlink" viewBox="0 0 480 455.6" shape-rendering="geometricPrecision" xmlns:v="https://vecta.io/nano"><style><![CDATA[#R{animation:eRX4pykl0GU604_to__to 3500ms linear infinite normal forwards}#S{animation:eRX4pykl0GU604_ts__ts 3500ms linear infinite normal forwards}#T{animation:eRX4pykl0GU610_to__to 3500ms linear infinite normal forwards}#U{animation:eRX4pykl0GU610_ts__ts 3500ms linear infinite normal forwards}#V{animation:eRX4pykl0GU616_to__to 3500ms linear infinite normal forwards}#W{animation:eRX4pykl0GU616_ts__ts 3500ms linear infinite normal forwards}#X{animation:eRX4pykl0GU622_to__to 3500ms linear infinite normal forwards}#Y{animation:eRX4pykl0GU622_ts__ts 3500ms linear infinite normal forwards}#Z{animation:eRX4pykl0GU643_to__to 3500ms linear infinite normal forwards}#a{animation:eRX4pykl0GU643_ts__ts 3500ms linear infinite normal forwards}#b{animation:eRX4pykl0GU691_ts__ts 3500ms linear infinite normal forwards}#d{animation:eRX4pykl0GU701_ts__ts 3500ms linear infinite normal forwards}#f{animation:eRX4pykl0GU717_ts__ts 3500ms linear infinite normal forwards}#g{animation:eRX4pykl0GU717_s_do 3500ms linear infinite normal forwards}#h{animation:eRX4pykl0GU718_ts__ts 3500ms linear infinite normal forwards}#i{animation:eRX4pykl0GU718_s_do 3500ms linear infinite normal forwards}#j{animation:eRX4pykl0GU719_ts__ts 3500ms linear infinite normal forwards}#k{animation:eRX4pykl0GU719_s_do 3500ms linear infinite normal forwards}#l{animation:eRX4pykl0GU720_ts__ts 3500ms linear infinite normal forwards}#m{animation:eRX4pykl0GU720_s_do 3500ms linear infinite normal forwards}#n{animation:eRX4pykl0GU721_ts__ts 3500ms linear infinite normal forwards}#o{animation:eRX4pykl0GU721_s_do 3500ms linear infinite normal forwards}@keyframes eRX4pykl0GU604_to__to{0%{transform:translate(242.949999px,226.850006px)}28.571429%{transform:translate(242.949999px,226.850006px)}51.428571%{transform:translate(65.949999px,288.850006px)}100%{transform:translate(65.949999px,288.850006px)}} @keyframes eRX4pykl0GU604_ts__ts{0%{transform:scale(0,0)}25.714286%{transform:scale(0,0)}28.571429%{transform:scale(1,1)}100%{transform:scale(1,1)}} @keyframes eRX4pykl0GU610_to__to{0%{transform:translate(244.900002px,228.300003px)}31.428571%{transform:translate(244.900002px,228.300003px);animation-timing-function:cubic-bezier(0.42,0,0.58,1)}54.285714%{transform:translate(136.900002px,166.300003px)}100%{transform:translate(136.900002px,166.300003px)}} @keyframes eRX4pykl0GU610_ts__ts{0%{transform:scale(0,0)}25.714286%{transform:scale(0,0)}28.571429%{transform:scale(0.95,0.95)}100%{transform:scale(0.95,0.95)}} @keyframes eRX4pykl0GU616_to__to{0%{transform:translate(244.787514px,230.351776px)}37.142857%{transform:translate(244.787514px,230.351776px);animation-timing-function:cubic-bezier(0.42,0,0.58,1)}60%{transform:translate(244.787514px,103.351776px)}100%{transform:translate(244.787514px,103.351776px)}} @keyframes eRX4pykl0GU616_ts__ts{0%{transform:scale(0,0)}25.714286%{transform:scale(0,0)}28.571429%{transform:scale(1,1)}100%{transform:scale(1,1)}} @keyframes eRX4pykl0GU622_to__to{0%{transform:translate(241.849991px,228.699997px)}40%{transform:translate(241.849991px,228.699997px);animation-timing-function:cubic-bezier(0.42,0,0.58,1)}62.857143%{transform:translate(349.849991px,165.699997px)}100%{transform:translate(349.849991px,165.699997px)}} @keyframes eRX4pykl0GU622_ts__ts{0%{transform:scale(0,0)}25.714286%{transform:scale(0,0)}28.571429%{transform:scale(1,1)}100%{transform:scale(1,1)}} @keyframes eRX4pykl0GU643_to__to{0%{transform:translate(244px,228.399994px)}42.857143%{transform:translate(244px,228.399994px);animation-timing-function:cubic-bezier(0.42,0,0.58,1)}65.714286%{transform:translate(421px,290.399994px)}100%{transform:translate(421px,290.399994px)}} @keyframes eRX4pykl0GU643_ts__ts{0%{transform:scale(0,0)}25.714286%{transform:scale(0,0)}28.571429%{transform:scale(1,1)}100%{transform:scale(1,1)}} @keyframes eRX4pykl0GU691_ts__ts{0%{transform:translate(243.500008px,226.949997px) scale(0,0)}2.857143%{transform:translate(243.500008px,226.949997px) scale(0,0)}14.285714%{transform:translate(243.500008px,226.949997px) scale(1,1)}20%{transform:translate(243.500008px,226.949997px) scale(0.9,0.9)}25.714286%{transform:translate(243.500008px,226.949997px) scale(1,1)}100%{transform:translate(243.500008px,226.949997px) scale(1,1)}} @keyframes eRX4pykl0GU701_ts__ts{0%{transform:translate(243.500008px,226.949997px) scale(0,0)}2.857143%{transform:translate(243.500008px,226.949997px) scale(0,0)}14.285714%{transform:translate(243.500008px,226.949997px) scale(1,1)}20%{transform:translate(243.500008px,226.949997px) scale(0.9,0.9)}25.714286%{transform:translate(243.500008px,226.949997px) scale(1,1)}100%{transform:translate(243.500008px,226.949997px) scale(1,1)}} @keyframes eRX4pykl0GU717_ts__ts{0%{transform:translate(421.3px,288.85px) rotate(-29.021146deg) scale(0,0)}22.857143%{transform:translate(421.3px,288.85px) rotate(-29.021146deg) scale(0,0)}34.285714%{transform:translate(421.3px,288.85px) rotate(-29.021146deg) scale(1.3,1.3)}40%{transform:translate(421.3px,288.85px) rotate(-29.021146deg) scale(1.2,1.2)}45.714286%{transform:translate(421.3px,288.85px) rotate(-29.021146deg) scale(1.3,1.3)}100%{transform:translate(421.3px,288.85px) rotate(-29.021146deg) scale(1.3,1.3)}} @keyframes eRX4pykl0GU717_s_do{0%{stroke-dashoffset:189.01}14.285714%{stroke-dashoffset:189.01}100%{stroke-dashoffset:170}} @keyframes eRX4pykl0GU718_ts__ts{0%{transform:translate(350.183305px,165.7px) rotate(-29.021146deg) scale(0,0)}17.142857%{transform:translate(350.183305px,165.7px) rotate(-29.021146deg) scale(0,0)}28.571429%{transform:translate(350.183305px,165.7px) rotate(-29.021146deg) scale(1.3,1.3)}34.285714%{transform:translate(350.183305px,165.7px) rotate(-29.021146deg) scale(1.2,1.2)}40%{transform:translate(350.183305px,165.7px) rotate(-29.021146deg) scale(1.3,1.3)}100%{transform:translate(350.183305px,165.7px) rotate(-29.021146deg) scale(1.3,1.3)}} @keyframes eRX4pykl0GU718_s_do{0%{stroke-dashoffset:189.01}14.285714%{stroke-dashoffset:189.01}100%{stroke-dashoffset:170}} @keyframes eRX4pykl0GU719_ts__ts{0%{transform:translate(244.157141px,103.252589px) rotate(-29.021146deg) scale(0,0)}17.142857%{transform:translate(244.157141px,103.252589px) rotate(-29.021146deg) scale(0,0)}28.571429%{transform:translate(244.157141px,103.252589px) rotate(-29.021146deg) scale(1.3,1.3)}34.285714%{transform:translate(244.157141px,103.252589px) rotate(-29.021146deg) scale(1.2,1.2)}40%{transform:translate(244.157141px,103.252589px) rotate(-29.021146deg) scale(1.3,1.3)}100%{transform:translate(244.157141px,103.252589px) rotate(-29.021146deg) scale(1.3,1.3)}} @keyframes eRX4pykl0GU719_s_do{0%{stroke-dashoffset:189.01}14.285714%{stroke-dashoffset:189.01}100%{stroke-dashoffset:170}} @keyframes eRX4pykl0GU720_ts__ts{0%{transform:translate(136.4px,165.7px) rotate(-29.021146deg) scale(0,0)}14.285714%{transform:translate(136.4px,165.7px) rotate(-29.021146deg) scale(0,0)}20%{transform:translate(136.4px,165.7px) rotate(-29.021146deg) scale(1.3,1.3)}25.714286%{transform:translate(136.4px,165.7px) rotate(-29.021146deg) scale(1.2,1.2)}31.428571%{transform:translate(136.4px,165.7px) rotate(-29.021146deg) scale(1.3,1.3)}100%{transform:translate(136.4px,165.7px) rotate(-29.021146deg) scale(1.3,1.3)}} @keyframes eRX4pykl0GU720_s_do{0%{stroke-dashoffset:189.01}14.285714%{stroke-dashoffset:189.01}100%{stroke-dashoffset:170}} @keyframes eRX4pykl0GU721_ts__ts{0%{transform:translate(66.182184px,288.977343px) rotate(-29.021146deg) scale(0,0)}5.714286%{transform:translate(66.182184px,288.977343px) rotate(-29.021146deg) scale(0,0)}17.142857%{transform:translate(66.182184px,288.977343px) rotate(-29.021146deg) scale(1.3,1.3)}22.857143%{transform:translate(66.182184px,288.977343px) rotate(-29.021146deg) scale(1.2,1.2)}28.571429%{transform:translate(66.182184px,288.977343px) rotate(-29.021146deg) scale(1.3,1.3)}100%{transform:translate(66.182184px,288.977343px) rotate(-29.021146deg) scale(1.3,1.3)}} @keyframes eRX4pykl0GU721_s_do{0%{stroke-dashoffset:189.01}11.428571%{stroke-dashoffset:189.01}100%{stroke-dashoffset:170}}.B{fill:none}.C{stroke-width:2}.D{stroke-miterlimit:10}.E{stroke-linejoin:round}.F{stroke-linecap:round}.G{stroke:#004d40}.H{stroke-opacity:.03}.I{stroke-opacity:.04}.J{stroke:#009b3e}.K{stroke:#ffad00}.L{stroke:#006fb9}.M{fill:#f8f3e7}.N{stroke:#f80011}.O{fill:#e42527}.P{fill:#226db4}.Q{opacity:.3}.R{stroke:#000}.S{stroke-dashoffset:189.01}.T{stroke-dasharray:9}.U{fill:#f9b21d}]]></style><defs><path id="A" d="M0 0h51.2v51.2H0z"/><filter  x="-150%" width="400%" y="-150%" height="400%"><feColorMatrix values="1 0 0 0 0 0 1 0 0 0 0 0 1 0 0 0 0 0 1 0"/></filter><filter id="C" x="-150%" width="400%" y="-150%" height="400%"><feGaussianBlur stdDeviation="30,30"/></filter><path id="D" d="M314.7,309.3l-35.6,20.5-35.6-20.5v-41.1l35.6-20.5l35.6,20.5v41.1Z"/><path id="E" d="M314.7,186.2l-35.6,20.5-35.6-20.5v-41.1l35.6-20.5l35.6,20.5v41.1Z"/><path id="F" d="M456.9 309.3l-35.6 20.5v41.1l35.6 20.5 23.1-13.3v-55.5z"/><path id="G" d="M306.1,415.1c0,1.8-1,3.4-2.5,4.3l-59,34c-1.5.9-3.5.9-5,0l-59-34c-1.5-.9-2.5-2.5-2.5-4.3v-68.1c0-1.8,1-3.4,2.5-4.3l59-34c1.5-.9,3.4-.9,5,0l59,34c1.5.9,2.5,2.5,2.5,4.3v68.1Z"/><path id="H" d="M303.8 419.9c1.7-1 2.8-2.8 2.8-4.8V347c0-2-1-3.8-2.8-4.8l-59-34c-1.7-1-3.8-1-5.5 0l-59 34c-1.7 1-2.8 2.8-2.8 4.8v68.1c0 2 1 3.8 2.8 4.8l59 34c1.7 1 3.8 1 5.5 0l59-34z"/><path id="I" d="M241.9,423.5c-.6,0-1.1-.3-1.4-.8-.5-.8-.2-1.8.6-2.3l34.7-20v-40.1c0-.9.8-1.7,1.7-1.7s1.7.7,1.7,1.7v41c0,.6-.3,1.1-.8,1.4l-35.5,20.5c-.4.2-.7.3-1,.3Z"/><path id="J" d="M241.9,423.5c-.3,0-.6-.1-.8-.2l-35.5-20.5c-.5-.3-.8-.9-.8-1.4v-41c0-.9.7-1.7,1.7-1.7.9,0,1.7.7,1.7,1.7v40.1l34.7,20c.8.5,1.1,1.5.6,2.3-.5.4-1,.7-1.6.7Z"/><path id="K" d="M277.4,362c-.3,0-.6-.1-.8-.2l-34.7-20-34.7,20c-.8.5-1.8.2-2.3-.6s-.2-1.8.6-2.3L241,338.4c.5-.3,1.1-.3,1.7,0l35.5,20.5c.8.5,1.1,1.5.6,2.3-.2.5-.8.8-1.4.8Z"/><path id="L" d="M241.9 398.9c-.6 0-1.1-.3-1.4-.8-.5-.8-.2-1.8.6-2.3l13.4-7.7v-15.5c0-.9.8-1.7 1.7-1.7s1.7.8 1.7 1.7V389c0 .6-.3 1.1-.8 1.4l-14.2 8.2c-.4.2-.7.3-1 .3z"/><path id="M" d="M241.9,398.9c-.3,0-.6-.1-.8-.2l-14.2-8.2c-.5-.3-.8-.9-.8-1.4v-16.4c0-.9.8-1.7,1.7-1.7s1.7.8,1.7,1.7v15.4l13.4,7.7c.8.5,1.1,1.5.6,2.3-.5.5-1,.8-1.6.8Z"/><path id="N" d="M256.1,374.3c-.3,0-.6-.1-.8-.2l-13.4-7.7-13.4,7.7c-.8.5-1.8.2-2.3-.6s-.2-1.8.6-2.3L241,363c.5-.3,1.1-.3,1.7,0l14.2,8.2c.8.5,1.1,1.5.6,2.3-.3.5-.8.8-1.4.8Z"/><path id="O" d="M241.9,382.5c-.3,0-.6-.1-.8-.2l-35.5-20.5c-.8-.5-1.1-1.5-.6-2.3s1.5-1.1,2.3-.6l35.5,20.5c.8.5,1.1,1.5.6,2.3-.4.5-.9.8-1.5.8Z"/><path id="P" d="M241.9,382.5c-.6,0-1.1-.3-1.4-.8-.5-.8-.2-1.8.6-2.3l35.5-20.5c.8-.5,1.8-.2,2.3.6s.2,1.8-.6,2.3l-35.5,20.5c-.3.1-.6.2-.9.2Z"/><path id="Q" d="M241.9,423.5c-.9,0-1.7-.8-1.7-1.7v-41c0-.9.8-1.7,1.7-1.7s1.7.8,1.7,1.7v41c0,.9-.8,1.7-1.7,1.7Z"/></defs><g class="M"><path d="M0 445.6V10.1C0 4.6 4.5.1 10 .1h460c5.5 0 10 4.5 10 10v435.5c0 5.5-4.5 10-10 10H10c-5.5 0-10-4.5-10-10z"/><g class="C D G H"><path d="M137 370.9l-35.6 20.5-35.6-20.5v-41.1l35.6-20.5 35.6 20.5v41.1zm0-123.2l-35.6 20.5-35.6-20.5v-41.1l35.6-20.5 35.6 20.5v41.1z"/><path d="M101.4 186.2l-35.6 20.5-35.6-20.5v-41.1l35.6-20.5 35.6 20.5v41.1z"/><path d="M137 124.6l-35.6 20.5-35.6-20.5V83.5L101.4 63 137 83.5v41.1z"/><path d="M101.4 63L65.8 83.5 30.2 63V21.9L65.8 1.4l35.6 20.5V63h0zm71 369.5L137 453l-35.6-20.5v-41.1l35.6-20.5 35.4 20.5v41.1z"/></g></g><path d="M101.4,429.6c0,1.8-1,3.4-2.5,4.3L68.3,451.5c-1.5.9-3.5.9-5,0L32.7,433.9c-1.5-.9-2.5-2.5-2.5-4.3v-35.3c0-1.8,1-3.4,2.5-4.3l30.6-17.6c1.5-.9,3.5-.9,5,0L98.9,390c1.5.9,2.5,2.5,2.5,4.3v35.3v0Z" class="B G I"/><path d="M172.4,309.3L137,329.8l-35.6-20.5v-41.1L137,247.7l35.4,20.5v41.1Z" class="C D G H M"/><path d="M101.4,306.4c0,1.8-1,3.4-2.5,4.3L68.3,328.3c-1.5.9-3.5.9-5,0L32.7,310.8c-1.5-.9-2.5-2.5-2.5-4.3v-35.3c0-1.8,1-3.4,2.5-4.3l30.6-17.6c1.5-.9,3.5-.9,5,0l30.6,17.6c1.5.9,2.5,2.5,2.5,4.3v35.2v0Z" class="B G I"/><g class="C D M G H"><path d="M208 124.6l-35.6 20.5-35.4-20.5V83.5L172.4 63 208 83.5v41.1zm35.6 307.9L208 453l-35.6-20.5v-41.1l35.6-20.5 35.6 20.5v41.1z"/><path d="M279.2,370.9l-35.6,20.5L208,370.9v-41.1l35.6-20.5l35.6,20.5v41.1Z"/><path d="M243.6,309.3L208,329.8l-35.6-20.5v-41.1L208,247.7l35.6,20.5v41.1Z"/><path d="M208 370.9l-35.6 20.5-35.4-20.5v-41.1l35.4-20.5 35.6 20.5v41.1zm-.4-122.7L172 268.7l-35.6-20.5v-41.1l35.6-20.5 35.6 20.5v41.1zm72 0L244 268.7l-35.6-20.5v-41.1l35.6-20.5 35.6 20.5v41.1zm-.4-123.6l-35.6 20.5-35.6-20.5V83.5L243.6 63l35.6 20.5v41.1z"/></g><path d="M172.4,183.3c0,1.8-.9,3.4-2.5,4.3l-30.4,17.6c-1.5.9-3.5.9-5,0l-30.6-17.6c-1.5-.9-2.5-2.5-2.5-4.3v-35.3c0-1.8,1-3.4,2.5-4.3l30.6-17.6c1.5-.9,3.5-.9,5,0l30.4,17.6c1.5.9,2.5,2.5,2.5,4.3v35.3Z" class="B G I"/><g class="C D M G H"><path d="M243.6 63L208 83.5 172.4 63V21.9L208 1.4l35.6 20.5V63zm71.1 369.5L279.1 453l-35.6-20.5v-41.1l35.6-20.5 35.6 20.5v41.1zm35.5-61.6l-35.4 20.5-35.6-20.5v-41.1l35.6-20.5 35.4 20.5v41.1z"/><use xlink:href="#D"/><path d="M350.2,247.7l-35.4,20.5-35.6-20.5v-41.1l35.6-20.5l35.4,20.5v41.1Z"/><use xlink:href="#E"/><path d="M350.2 124.6l-35.4 20.5-35.6-20.5V83.5L314.8 63l35.4 20.5v41.1zm35.6 307.9L350.2 453l-35.4-20.5v-41.1l35.4-20.5 35.6 20.5v41.1zm0-123.2l-35.6 20.5-35.4-20.5v-41.1l35.4-20.5 35.6 20.5v41.1z"/><path d="M385.8,186.2l-35.6,20.5-35.4-20.5v-41.1l35.4-20.5l35.6,20.5v41.1Z"/></g><path d="M172.4,60.1c0,1.8-.9,3.4-2.5,4.3L139.5,82c-1.5.9-3.5.9-5,0L103.9,64.4c-1.5-.9-2.5-2.5-2.5-4.3v-35.3c0-1.8,1-3.4,2.5-4.3L134.5,2.9c1.5-.9,3.5-.9,5,0l30.4,17.6c1.5.9,2.5,2.5,2.5,4.3v35.3Z" class="B G I"/><g class="C D M G H"><path d="M456.9,432.5L421.3,453l-35.6-20.5v-41.1l35.6-20.5l35.6,20.5v41.1Z"/><use xlink:href="#F"/><use xlink:href="#D" x="142.2"/><use xlink:href="#E" x="142.2"/></g><path d="M421.4 368c0 1.8-1 3.4-2.5 4.3l-30.6 17.6a4.97 4.97 0 0 1-5 0l-30.6-17.6c-1.5-.9-2.5-2.5-2.5-4.3v-35.3c0-1.8 1-3.4 2.5-4.3l30.6-17.6a4.97 4.97 0 0 1 5 0l30.6 17.6c1.5.9 2.5 2.5 2.5 4.3V368zm0-123.1c0 1.8-1 3.4-2.5 4.3l-30.6 17.6a4.97 4.97 0 0 1-5 0l-30.6-17.6c-1.5-.9-2.5-2.5-2.5-4.3v-35.3c0-1.8 1-3.4 2.5-4.3l30.6-17.6a4.97 4.97 0 0 1 5 0l30.6 17.6c1.5.9 2.5 2.5 2.5 4.3v35.3z" class="B G I"/><g class="C D M G H"><path d="M456.9 63l-35.6 20.5L385.7 63V21.9l35.6-20.5 35.6 20.5V63z"/><path d="M385.8 63l-35.6 20.5L314.7 63V21.9l35.4-20.5 35.6 20.5.1 41.1h0z"/></g><path d="M314.7 60.1c0 1.8-1 3.4-2.5 4.3L281.6 82a4.97 4.97 0 0 1-5 0L246 64.4c-1.5-.9-2.5-2.5-2.5-4.3V24.8c0-1.8 1-3.4 2.5-4.3l30.6-17.6a4.97 4.97 0 0 1 5 0l30.6 17.6c1.5.9 2.5 2.5 2.5 4.3v35.3zm106.7 61.6c0 1.8-1 3.4-2.5 4.3l-30.6 17.6a4.97 4.97 0 0 1-5 0L352.7 126c-1.5-.9-2.5-2.5-2.5-4.3V86.4c0-1.8 1-3.4 2.5-4.3l30.6-17.6a4.97 4.97 0 0 1 5 0l30.6 17.6c1.5.9 2.5 2.5 2.5 4.3v35.3z" class="B G I"/><g class="C D M G H"><path d="M456.9 391.4v41.1l23.1 13.3v-67.7z"/><use xlink:href="#F" y="-123.2"/><path d="M456.9 268.2v41.1l23.1 13.3v-67.7zM30.2 145.1L0 127.7v75.9l30.2-17.4z"/><path d="M30.3 186.1L0 203.5v47.2l30.2 17.5 35.6-20.5h.1v-41.1z"/><path d="M30.2 268.2L0 250.8v45.8 1.2 28.9l30.2-17.4z"/><path d="M30.3 309.3L0 326.7v11.6 27.5 1.4 6.7l30.2 17.5 35.6-20.5h.1v-41.1z"/><path d="M30.2 391.4L0 374v39 1.2 28.9l.3 3.2 29.9-13.8zm0-369.5L1.2 5.7.8 79.9 30.2 63zm426.7 0V63L480 76.3l-1-67.7z"/></g><g id="R" transform="translate(242.95 226.85)" class="B C E"><g id="S" transform="scale(0)"><g transform="translate(-65.95 -288.85)"><g><path d="M54.5,303.8v-3.9c0-6.3,5.1-8.4,11.4-8.4s11.4,2.1,11.4,8.4v3.8" class="D F N"/><path d="M50.9,281.6v-3.6c0-2.3,1.9-4.2,4.2-4.2h21.7c2.3,0,4.2,1.9,4.2,4.2v21.7c0,2.3-1.9,4.2-4.2,4.2h-4.8" class="D F J"/><path d="M68.3,303.8h-13.2c-2.3,0-4.2-1.9-4.2-4.2v-14.4" class="D F K"/><circle r="5.1" cx="65.9" cy="284.9" class="L"/></g></g></g></g><g id="T" transform="translate(244.9 228.3)" class="B C D E F"><g id="U" transform="scale(0)"><g transform="translate(-136.9 -166.3)"><g><path d="M137.9,177.3h-12.8c-1.8,0-3.2-1.4-3.2-3.2v-15.6c0-1.8,1.4-3.2,3.2-3.2h3.2" class="J"/><path d="M151.9,172.2v1.9c0,1.8-1.4,3.2-3.2,3.2h-7.4" class="K"/><path d="M133.1,155.3h15.6c1.8,0,3.2,1.4,3.2,3.2v9.4" class="N"/><path d="M125.1,159.9l9.7,7.8c1.3.9,3,.9,4.3,0l9.8-7.8" class="L"/></g></g></g></g><g id="V" transform="translate(244.788 230.352)" class="B C D E F"><g id="W" transform="scale(0)"><g transform="translate(-244.788 -103.352)"><g><path d="M243 105.6l-1.6-2.2c-1.5-2.7.7-4.4.7-4.4l1.7-1.3c1.6-1.4 1.4-3.7-.9-6.9s-5.1-1.8-7.5 0-1.6 6.6-1.6 6.6" class="L"/><path d="M244.8,115.5c2.1,1.7,4.2,2.8,7,2.1c1.8-.5,4.2-2.4,4.1-4.5-.1-2-2.1-5.1-4.1-5.8-.7-.3-1.5-.3-2.2-.1-1.2.3-2.4,1.7-3.7,1.3-.4-.1-.8-.4-1.2-.8" class="N"/><path d="M238.6,108.4c1.7,2.7,3.8,5.1,6.3,7.1" class="K"/><path d="M234.5,100.2c1.1,2.8,2.4,5.6,4.1,8.2" class="J"/></g></g></g></g><g id="X" transform="translate(241.85 228.7)" class="B C D E F"><g id="Y" transform="scale(0)"><g transform="translate(-349.85 -165.7)"><g><path d="M340.7,172.6h-2.6c-1.8,0-3.3-1.5-3.3-3.3v-7.3c0-1.8,1.5-3.3,3.3-3.3h17.6" class="J"/><path d="M360.3,158.7h1.3c1.8,0,3.3,1.5,3.3,3.3v7.4c0,1.8-1.5,3.3-3.3,3.3h-16" class="L"/><g><g class="L"><path d="M340.8 164.1v3.1"/><path d="M342.3 164.9l-2.7 1.6"/><path d="M339.4 164.8l2.6 1.8"/></g><g class="N"><path d="M346.8 164.1v3.1"/><path d="M348.3 164.9l-2.7 1.6"/><path d="M345.4 164.8l2.6 1.8"/></g><g class="J"><path d="M352.9 164.1v3.1"/><path d="M354.3 164.9l-2.7 1.6"/><path d="M351.4 164.8l2.7 1.8"/></g><g class="K"><path d="M358.9 164.1v3.1"/><path d="M360.3 164.9l-2.7 1.6"/><path d="M357.5 164.8l2.6 1.8"/></g></g></g></g></g></g><g id="Z" transform="translate(244 228.4)" class="B C D E F"><g id="a" transform="scale(0)"><g transform="translate(-421 -290.4)"><path d="M409,299.4c-1.9-2.5-3-5.6-3-9c0-8.3,6.7-15,15-15c2.9,0,5.6.8,7.9,2.3" class="L"/><path d="M421.1,305.4c-3.1,0-5.9-.9-8.3-2.5" class="K"/><path d="M433.7,282.4c1.5,2.3,2.3,5.1,2.3,8c0,8.3-6.7,15-15,15" class="K"/><path d="M420.8 293.8l12.3-15.4" class="J"/><path d="M414 287.7l6.8 6.1" class="N"/></g></g></g><g opacity=".8" filter="url(#C)"><use xlink:href="#G" fill="#ffd730"/><use xlink:href="#H" class="B G I"/><use xlink:href="#I" class="O"/><use xlink:href="#J" class="U"/><use xlink:href="#K" class="P"/><use xlink:href="#L" class="O"/><use xlink:href="#M" class="U"/><use xlink:href="#N" class="P"/><g fill="#089949"><use xlink:href="#O"/><use xlink:href="#P"/><use xlink:href="#Q"/></g></g><use xlink:href="#G" fill="#ffd730"/><use xlink:href="#H" class="B G I"/><use xlink:href="#I" class="O"/><use xlink:href="#J" class="U"/><use xlink:href="#K" class="P"/><use xlink:href="#L" class="O"/><use xlink:href="#M" class="U"/><use xlink:href="#N" class="P"/><g fill="#089949"><use xlink:href="#O"/><use xlink:href="#P"/><use xlink:href="#Q"/></g><g id="b" transform="matrix(0 0 0 0 243.500008 226.949997)"><g transform="translate(-243.5 -226.95)" opacity=".8" filter="url(#C)"><g><path d="M286.1,248.7c0,1.8-1,3.4-2.5,4.3L246,274.7c-1.5.9-3.5.9-5,0L203.3,253c-1.5-.9-2.5-2.5-2.5-4.3v-43.5c0-1.8,1-3.4,2.5-4.3L241,179.2c1.5-.9,3.5-.9,5,0l37.7,21.7c1.5.9,2.5,2.5,2.5,4.3v43.5h-.1Z" fill="#8ccfff"/></g><g><g clip-path="url(#c)"><g><path d="M244.5 252.6c-1.7 0-3.4-.7-4.6-1.9l-21.6-21.6c-.6-.6-.6-1.5 0-2.1l21.6-21.6c1.2-1.2 2.9-1.9 4.6-1.9s3.4.7 4.6 1.9l7.7 7.7c.6.6.6 1.5 0 2.1L244 228l12.8 12.9c.6.6.6 1.5 0 2.1l-7.7 7.7a6.42 6.42 0 0 1-4.6 1.9zm-23-24.6l20.5 20.5c.7.7 1.5 1 2.5 1 .9 0 1.8-.4 2.5-1l6.6-6.6-12.8-12.9c-.6-.6-.6-1.5 0-2.1l12.8-12.9-6.6-6.6c-.7-.7-1.5-1-2.5-1-.9 0-1.8.4-2.5 1L221.5 228z" opacity=".9" class="P"/><path d="M261,238.1c-.4,0-.8-.2-1.1-.4l-8.6-8.6c-.6-.6-.6-1.5,0-2.1l8.6-8.6c.3-.3.7-.4,1.1-.4s.8.2,1.1.4l5.1,5.1c2.5,2.5,2.5,6.6,0,9.2l-5.1,5.1c-.3.2-.7.3-1.1.3ZM254.6,228l6.5,6.5l4-4c1.4-1.4,1.4-3.6,0-4.9l-4-4-6.5,6.4Z" opacity=".9" class="O"/></g><clipPath id="c"><use width="51.2" height="51.2" xlink:href="#A" x="217.9" y="202.4"/></clipPath></g></g></g></g><g id="d" transform="matrix(0 0 0 0 243.500008 226.949997)"><g transform="translate(-243.5 -226.95)"><g><path d="M286.1,248.7c0,1.8-1,3.4-2.5,4.3L246,274.7c-1.5.9-3.5.9-5,0L203.3,253c-1.5-.9-2.5-2.5-2.5-4.3v-43.5c0-1.8,1-3.4,2.5-4.3L241,179.2c1.5-.9,3.5-.9,5,0l37.7,21.7c1.5.9,2.5,2.5,2.5,4.3v43.5h-.1Z" fill="#8ccfff"/></g><g><g clip-path="url(#e)"><g><path d="M244.5 252.6c-1.7 0-3.4-.7-4.6-1.9l-21.6-21.6c-.6-.6-.6-1.5 0-2.1l21.6-21.6c1.2-1.2 2.9-1.9 4.6-1.9s3.4.7 4.6 1.9l7.7 7.7c.6.6.6 1.5 0 2.1L244 228l12.8 12.9c.6.6.6 1.5 0 2.1l-7.7 7.7a6.42 6.42 0 0 1-4.6 1.9zm-23-24.6l20.5 20.5c.7.7 1.5 1 2.5 1 .9 0 1.8-.4 2.5-1l6.6-6.6-12.8-12.9c-.6-.6-.6-1.5 0-2.1l12.8-12.9-6.6-6.6c-.7-.7-1.5-1-2.5-1-.9 0-1.8.4-2.5 1L221.5 228z" opacity=".9" class="P"/><path d="M261,238.1c-.4,0-.8-.2-1.1-.4l-8.6-8.6c-.6-.6-.6-1.5,0-2.1l8.6-8.6c.3-.3.7-.4,1.1-.4s.8.2,1.1.4l5.1,5.1c2.5,2.5,2.5,6.6,0,9.2l-5.1,5.1c-.3.2-.7.3-1.1.3ZM254.6,228l6.5,6.5l4-4c1.4-1.4,1.4-3.6,0-4.9l-4-4-6.5,6.4Z" opacity=".9" class="O"/></g><clipPath id="e"><use width="51.2" height="51.2" xlink:href="#A" x="217.9" y="202.4"/></clipPath></g></g></g></g><g id="f" transform="matrix(0 0 0 0 421.3 288.85)" class="B E F R S T"><path id="g" transform="translate(-50 -50)" d="M65.75 22.72h-31.5L18.5 50l15.75 27.28h31.5L81.5 50 65.75 22.72z" class="Q"/></g><g id="h" transform="matrix(0 0 0 0 350.183305 165.7)" class="B E F R S T"><path id="i" transform="translate(-50 -50)" d="M65.75 22.72h-31.5L18.5 50l15.75 27.28h31.5L81.5 50 65.75 22.72z" class="Q"/></g><g id="j" transform="matrix(0 0 0 0 244.157141 103.252589)" class="B E F R S T"><path id="k" transform="translate(-50 -50)" d="M65.75 22.72h-31.5L18.5 50l15.75 27.28h31.5L81.5 50 65.75 22.72z" class="Q"/></g><g id="l" transform="matrix(0 0 0 0 136.4 165.7)" class="B E F R S T"><path id="m" transform="translate(-50 -50)" d="M65.75 22.72h-31.5L18.5 50l15.75 27.28h31.5L81.5 50 65.75 22.72z" class="Q"/></g><g id="n" transform="matrix(0 0 0 0 66.182184 288.977343)" class="B E F R S T"><path id="o" transform="translate(-50 -50)" d="M65.75 22.72h-31.5L18.5 50l15.75 27.28h31.5L81.5 50 65.75 22.72z" class="Q"/></g></svg>