<svg xmlns="http://www.w3.org/2000/svg" width="396.781" height="155.731" viewBox="0 0 396.781 155.731">
  <g id="PayFast_-_white_bg" data-name="PayFast - white bg" transform="translate(-10004.127 -6846.934)">
    <path id="Path_103671" data-name="Path 103671" d="M104.082,49.23v.729c0,.274,0,.5-.023.729H86.39a6.264,6.264,0,0,0,.645,2.642,7.042,7.042,0,0,0,1.571,2.14A8.048,8.048,0,0,0,90.884,56.9a7.369,7.369,0,0,0,2.732.5,7.742,7.742,0,0,0,3.916-.979,8.213,8.213,0,0,0,2.581-2.419l3.1,2.482A11.141,11.141,0,0,1,99,59.974a12.88,12.88,0,0,1-5.374,1.094,12.43,12.43,0,0,1-4.668-.842,11.023,11.023,0,0,1-3.71-2.368,10.873,10.873,0,0,1-2.435-3.666,12.42,12.42,0,0,1-.911-4.782,13.216,13.216,0,0,1,.865-4.782,10.9,10.9,0,0,1,2.419-3.734,11.163,11.163,0,0,1,3.666-2.419,12.526,12.526,0,0,1,8.971-.068,8.629,8.629,0,0,1,3.369,2.3,10.15,10.15,0,0,1,2.14,3.644,14.032,14.032,0,0,1,.753,4.881ZM99.6,47.456a8.12,8.12,0,0,0-.432-2.482,6.015,6.015,0,0,0-1.161-2,5.457,5.457,0,0,0-1.935-1.344,6.613,6.613,0,0,0-2.715-.5,6.736,6.736,0,0,0-2.642.5,7.221,7.221,0,0,0-2.163,1.344,7.824,7.824,0,0,0-1.5,2,5.527,5.527,0,0,0-.66,2.482Z" transform="translate(10187.911 6931.348)" fill="#022d2d"/>
    <path id="Path_103672" data-name="Path 103672" d="M123.437,37.825,118.4,54.97l-5.44-17.145h-4.645l-5.35,17.145L97.889,37.825H93.1l7.419,22.245H105.1l5.442-16.69h.092l5.484,16.69h4.6l7.355-22.245Z" transform="translate(10213.074 6931.824)" fill="#022d2d"/>
    <path id="Path_103673" data-name="Path 103673" d="M127.693,49.3a11.338,11.338,0,0,1-7.24,10.906,13.387,13.387,0,0,1-9.469,0,11.29,11.29,0,0,1-3.8-2.435,10.864,10.864,0,0,1-2.5-3.734,12.246,12.246,0,0,1-.911-4.735,11.729,11.729,0,0,1,.911-4.713,10.586,10.586,0,0,1,2.5-3.666,11.473,11.473,0,0,1,3.8-2.419,13.387,13.387,0,0,1,9.469,0,10.968,10.968,0,0,1,3.8,2.419,11.331,11.331,0,0,1,2.527,3.666A11.806,11.806,0,0,1,127.693,49.3Zm-4.6.023a8.918,8.918,0,0,0-.5-3.027,7.469,7.469,0,0,0-1.434-2.527A7.7,7.7,0,0,0,118.814,42a7.419,7.419,0,0,0-3.166-.66,7.339,7.339,0,0,0-3.163.66,6.722,6.722,0,0,0-2.345,1.774,7.869,7.869,0,0,0-1.434,2.527,9.033,9.033,0,0,0-.5,3.027,8.843,8.843,0,0,0,.5,3.029,7.855,7.855,0,0,0,1.434,2.581,7.016,7.016,0,0,0,2.345,1.774,7.916,7.916,0,0,0,6.329,0,6.756,6.756,0,0,0,2.345-1.774,7.684,7.684,0,0,0,1.434-2.581,8.4,8.4,0,0,0,.5-3.029Z" transform="translate(10237.002 6931.413)" fill="#022d2d"/>
    <path id="Path_103674" data-name="Path 103674" d="M120.787,35.7h-4.416V64.829h4.416Z" transform="translate(10265.295 6927.063)" fill="#022d2d"/>
    <path id="Path_103675" data-name="Path 103675" d="M99.441,45.953V42.584H93.884V35.7H89.507V58.25a7.419,7.419,0,0,0,1.663,5.215,6.3,6.3,0,0,0,4.8,1.731,14.271,14.271,0,0,0,2-.161,8.256,8.256,0,0,0,1.434-.365V61.023c-.342.137-.7.227-1.094.342a6.984,6.984,0,0,1-1.29.137,3.085,3.085,0,0,1-2.419-.865,4.344,4.344,0,0,1-.729-2.869V45.976Z" transform="translate(10204.988 6927.063)" fill="#022d2d"/>
    <path id="Path_103676" data-name="Path 103676" d="M122.875,37.643a7.063,7.063,0,0,0-4.032,1.206,7.7,7.7,0,0,0-2.868,3.165V38.235h-4.166V60.479h4.416V48.8a10.539,10.539,0,0,1,.366-2.71,6.642,6.642,0,0,1,1.139-2.277,5.682,5.682,0,0,1,1.935-1.571,5.884,5.884,0,0,1,2.777-.592,8.207,8.207,0,0,1,2,.227v-4.1A6.5,6.5,0,0,0,122.875,37.643Z" transform="translate(10255.055 6931.413)" fill="#022d2d"/>
    <path id="Path_103677" data-name="Path 103677" d="M94.391,43.17A8.472,8.472,0,0,0,92.865,40.3a7.313,7.313,0,0,0-2.581-1.935,8.768,8.768,0,0,0-3.71-.729,7.408,7.408,0,0,0-2.345.342,9.379,9.379,0,0,0-2.073.911,8.844,8.844,0,0,0-1.663,1.366,6.847,6.847,0,0,0-1.29,1.661V38.273H75.06V60.52h4.419V48.708a8.04,8.04,0,0,1,1.661-5.3,5.256,5.256,0,0,1,4.281-2,5.187,5.187,0,0,1,2.527.569,3.871,3.871,0,0,1,1.526,1.5,6.423,6.423,0,0,1,.774,2.163,15.309,15.309,0,0,1,.2,2.581V60.534h4.44V46.721a11.864,11.864,0,0,0-.5-3.552Z" transform="translate(10172.581 6931.398)" fill="#022d2d"/>
    <path id="Path_103678" data-name="Path 103678" d="M127.114,37.825h5.44l-9.379,11.2,9.244,11.044h-5.44l-9.247-11.044Z" transform="translate(10268.349 6931.824)" fill="#022d2d"/>
    <path id="Path_103679" data-name="Path 103679" d="M57.766,34h4.1V49.968h.092a7.332,7.332,0,0,1,3.147-2.645,9.839,9.839,0,0,1,4.379-1A11.281,11.281,0,0,1,74,47.185,9.753,9.753,0,0,1,77.471,49.6,10.161,10.161,0,0,1,79.7,53.194a13.271,13.271,0,0,1,0,8.94,10.732,10.732,0,0,1-2.235,3.6A9.75,9.75,0,0,1,74,68.156a11.281,11.281,0,0,1-4.516.866,10.227,10.227,0,0,1-4.287-.958,7.845,7.845,0,0,1-3.239-2.69h-.092v3.1h-4.1ZM68.987,65.194a7.686,7.686,0,0,0,2.965-.548,7,7,0,0,0,2.235-1.55A7.135,7.135,0,0,0,75.6,60.723a9.073,9.073,0,0,0,.5-3.056,8.683,8.683,0,0,0-.5-3.01,6.571,6.571,0,0,0-1.415-2.373,6.155,6.155,0,0,0-2.235-1.55,7.706,7.706,0,0,0-5.929,0,6.155,6.155,0,0,0-2.235,1.55,6.571,6.571,0,0,0-1.414,2.373,8.684,8.684,0,0,0-.5,3.01,9.073,9.073,0,0,0,.5,3.056A7.136,7.136,0,0,0,63.787,63.1a7,7,0,0,0,2.235,1.55,7.686,7.686,0,0,0,2.965.548Z" transform="translate(10133.769 6923.236)" fill="#022d2d"/>
    <path id="Path_103680" data-name="Path 103680" d="M64.857,37.962H69.6l6.431,16.876h.092l6.111-16.876h4.424L76.4,64.235a25.521,25.521,0,0,1-1.14,2.555A7.645,7.645,0,0,1,73.841,68.8a5.676,5.676,0,0,1-2.006,1.277,7.653,7.653,0,0,1-2.827.456,13.225,13.225,0,0,1-1.869-.137,6.128,6.128,0,0,1-1.774-.456l.5-3.74a6.484,6.484,0,0,0,2.463.5,4.068,4.068,0,0,0,1.6-.274,2.637,2.637,0,0,0,1.14-.731,3.709,3.709,0,0,0,.821-1.1q.323-.645.645-1.452l1.323-3.421Z" transform="translate(10149.683 6932.132)" fill="#022d2d"/>
    <path id="Path_103681" data-name="Path 103681" d="M65.843,37.98H57.766V24.714h8.077V19.32C65.843,6.515,75.306,0,87.951,0A38.214,38.214,0,0,1,99.937,1.8V14.38a27.606,27.606,0,0,0-8.431-1.358c-5.613,0-8.31,2.6-8.31,7.531v4.155h17.419V37.972H82.982v43.2H65.843Z" transform="translate(10133.769 6846.935)" fill="#022d2d"/>
    <path id="Path_103682" data-name="Path 103682" d="M20.109,48.086c0-9.11,6.513-15.742,21.235-15.742h18.1v-3.71c0-6.732-3.816-9.429-11.687-9.429-6.413,0-10.108,2.7-10.108,7.192,0,.34,0,1.239.1,2.358H22.03a26.162,26.162,0,0,1-.24-3.256c0-11.247,9.889-17.879,26.75-17.879,17.66,0,27.968,7.871,27.968,22.713V64.026H59.424a111.056,111.056,0,0,0,.879-11.29h-.119c-1.7,7.876-7.992,12.131-18.1,12.131C29.1,64.926,20.109,59.312,20.109,48.086Zm39.34-5.337V41.63H42.924c-4.615,0-7.411,2.137-7.411,5.294,0,4.255,3.7,6.513,9.889,6.513C54.309,53.359,59.449,49.425,59.449,42.749Z" transform="translate(10049.257 6864.028)" fill="#022d2d"/>
    <path id="Path_103683" data-name="Path 103683" d="M55.046,7.609h-16.9L53.215,64.048H66.247c-2.481,6.744-6.29,9.237-12.284,9.235a29.387,29.387,0,0,1-7.315-.927V85.477a33.042,33.042,0,0,0,11,1.508c10.732,0,19.889-6.523,24.715-22.95L97.525,7.606H80.586L68.005,57.983Z" transform="translate(10089.744 6864.009)" fill="#022d2d" fill-rule="evenodd"/>
    <path id="Path_103684" data-name="Path 103684" d="M71.63,48.089c0-9.11,6.532-15.742,21.255-15.742h18.079v-3.71c0-6.732-3.816-9.429-11.687-9.429-6.392,0-10.108,2.7-10.108,7.192a21.747,21.747,0,0,0,.119,2.358H73.546a26.338,26.338,0,0,1-.219-3.256c0-11.247,9.989-17.879,26.748-17.879,17.64,0,27.968,7.871,27.968,22.715v33.7h-17.1a111.139,111.139,0,0,0,.806-11.227h-.119c-1.677,7.871-7.99,12.126-18.1,12.126C80.614,64.929,71.63,59.315,71.63,48.089Zm39.334-5.342V41.628H94.443c-4.6,0-7.419,2.137-7.419,5.294,0,4.255,3.71,6.513,9.989,6.513C105.811,53.363,110.964,49.426,110.964,42.747Z" transform="translate(10164.884 6864.035)" fill="#022d2d"/>
    <path id="Path_103685" data-name="Path 103685" d="M91.059,45.3H106.3c0,5.142,2.59,8.51,12.335,8.51,8.871,0,11.956-2.571,11.956-6.613,0-1.992-1-3.587-3.984-4.265a104.354,104.354,0,0,0-12.894-1.555c-7.971-.677-14.129-1.994-17.476-4.265A13.332,13.332,0,0,1,90.962,26.23c0-11.956,12.335-18.611,27.7-18.611,18.155,0,26.465,6.955,26.465,19.927H130.1c-.119-5.819-2.81-8.848-11.221-8.848-7.613,0-10.981,2.571-10.981,6.377a4.582,4.582,0,0,0,3.985,4.942,123.734,123.734,0,0,0,13.689,1.674c6.835.677,11.66,1.355,15.806,3.71a12.552,12.552,0,0,1,6.158,10.981c0,11.658-9.963,18.492-28.915,18.492C99.251,64.787,91.059,56.5,91.059,45.3Z" transform="translate(10208.26 6864.031)" fill="#022d2d"/>
    <path id="Path_103686" data-name="Path 103686" d="M119.173,1.525l19.774.047A19.774,19.774,0,0,1,119.431,21.3h32.6V34.56h-17.8v23.1c0,5.734,2.719,7.532,9.45,7.532a41.936,41.936,0,0,0,7.75-.779V77.335a55.919,55.919,0,0,1-10.787,1.218c-17.3,0-23.492-7.631-23.492-20V34.56h-8.092V21.3h10.116Z" transform="translate(10248.877 6850.357)" fill="#022d2d" fill-rule="evenodd"/>
    <path id="Path_103687" data-name="Path 103687" d="M0,8.514H16.921L16.582,19.83h.1c2.132-7.61,9.2-12.213,18.727-12.213,15.46,0,25.56,11,25.56,27.353,0,17.931-10.1,29.877-25.679,29.877-10.081,0-16.356-4.144-18.827-10.858.219,3.685.558,9.184.558,11.2V86.152H0Zm44.032,27.14c0-8.965-5.161-15.021-12.89-15.021-8.506,0-14.224,6.156-14.224,15.46v2.465c0,7.969,5.718,13.226,14.344,13.226C38.871,51.783,44.032,45.291,44.032,35.654Z" transform="translate(10004.127 6864.032)" fill="#022d2d"/>
  </g>
</svg>
