<svg width="44" height="50" viewBox="0 0 44 50" fill="none" xmlns="http://www.w3.org/2000/svg">
<g clip-path="url(#clip0_2239_1784)">
<path fill-rule="evenodd" clip-rule="evenodd" d="M21.3323 0.577519C21.9511 0.220254 22.7135 0.220253 23.3323 0.577519L42.9829 11.9228C43.6017 12.2801 43.9829 12.9404 43.9829 13.6549V36.3455C43.9829 37.06 43.6017 37.7203 42.9829 38.0776L23.3323 49.4228C22.7135 49.7801 21.9511 49.7801 21.3323 49.4228L1.68164 38.0776C1.06284 37.7203 0.681641 37.06 0.681641 36.3455V13.6549C0.681641 12.9404 1.06284 12.2801 1.68164 11.9228L21.3323 0.577519Z" fill="#F0483E"/>
<path fill-rule="evenodd" clip-rule="evenodd" d="M30.1417 22.552C31.4364 23.3288 31.4364 25.2052 30.1417 25.982L20.029 32.0496C18.6959 32.8494 17 31.8892 17 30.3346V18.1994C17 16.6448 18.6959 15.6846 20.029 16.4844L30.1417 22.552Z" fill="white"/>
</g>
<defs>
<clipPath id="clip0_2239_1784">
<rect width="44" height="50" fill="white"/>
</clipPath>
</defs>
</svg>
