<svg xmlns="http://www.w3.org/2000/svg" xmlns:xlink="http://www.w3.org/1999/xlink" width="400" height="100.348" xmlns:v="https://vecta.io/nano"><g fill="#002169"><path d="M117.468 94.328V76.556h12.554v3.612h-8.2v3.361h7.751v3.437h-7.753v3.687h8.679v3.663h-13.018z"/><use xlink:href="#B"/><use xlink:href="#C"/><use xlink:href="#D"/><use xlink:href="#E"/><use xlink:href="#F"/><use xlink:href="#G"/><use xlink:href="#H"/><use xlink:href="#I"/><use xlink:href="#J"/><use xlink:href="#K"/><use xlink:href="#L"/><path d="M108.676 34.103v-9.91h33.637v9.91h-10.987v28.631h-11.9V34.103z"/><use xlink:href="#M"/><use xlink:href="#N"/><path d="M240.805 24.193h29.2v9.91h-17.059v5.017h14.859v8.8h-14.859v14.814h-12.141z"/><use xlink:href="#O"/><use xlink:href="#P"/><use xlink:href="#Q"/></g><g fill="#ff4d00"><path d="M36.158 92.447l.414.038-.414-.063v.025zm4.139-54.934a3.3 3.3 0 0 1-2.032-.7c.549.508 1.286.762 2.032.7z"/><use xlink:href="#R"/><use xlink:href="#S"/><use xlink:href="#T" fill-rule="evenodd"/></g><g fill="#002169"><path d="M117.468 94.328V76.556h12.554v3.612h-8.2v3.361h7.751v3.437h-7.753v3.687h8.679v3.663h-13.018z"/><use xlink:href="#B"/><use xlink:href="#C"/><use xlink:href="#D"/><use xlink:href="#E"/><use xlink:href="#F"/><use xlink:href="#G"/><use xlink:href="#H"/><use xlink:href="#I"/><use xlink:href="#J"/><use xlink:href="#K"/><use xlink:href="#L"/><path d="M108.676 34.103v-9.91h33.637v9.91h-10.987v28.631h-11.9V34.103z"/><use xlink:href="#M"/><use xlink:href="#N"/><path d="M240.805 24.193h29.2v9.91h-17.059v5.017h14.859v8.8h-14.859v14.814h-12.141z"/><use xlink:href="#O"/><use xlink:href="#P"/><use xlink:href="#Q"/></g><g fill="#ff4d00"><path d="M36.158 92.447l.414.038-.414-.063v.025zm4.139-54.934a3.3 3.3 0 0 1-2.032-.7c.549.508 1.286.762 2.032.7z"/><use xlink:href="#R"/><use xlink:href="#S"/><use xlink:href="#T" fill-rule="evenodd"/></g><defs ><path id="B" d="M142.251 94.328v-6.835a5.15 5.15 0 0 0-.088-1c-.054-.294-.155-.578-.3-.84-.14-.243-.344-.442-.589-.577a2 2 0 0 0-.966-.213 2.33 2.33 0 0 0-1.016.213 2.07 2.07 0 0 0-.727.589c-.2.258-.349.551-.439.865-.101.329-.152.672-.151 1.016v6.785h-4.353v-12.5h4.189v1.731h.05c.177-.284.383-.549.615-.79a3.67 3.67 0 0 1 .89-.665 5.2 5.2 0 0 1 1.116-.452 4.8 4.8 0 0 1 1.292-.176 5.08 5.08 0 0 1 2.245.452c.579.271 1.089.67 1.492 1.166a4.49 4.49 0 0 1 .815 1.643 7.27 7.27 0 0 1 .251 1.856v7.738h-4.352z"/><path id="C" d="M154.956 84.884v4.791a2.04 2.04 0 0 0 .351 1.317 1.59 1.59 0 0 0 1.279.439c.227.001.453-.016.677-.05.201-.028.399-.078.589-.151l.05 3.01c-.369.116-.747.204-1.129.263-.452.075-.909.113-1.367.113-.752.021-1.503-.086-2.22-.314a3.55 3.55 0 0 1-1.442-.9 3.5 3.5 0 0 1-.778-1.4 6.41 6.41 0 0 1-.238-1.831v-5.28h-2.106v-3.06h2.082v-3.293h4.239v3.286h3.085v3.06h-3.085z"/><path id="D" d="M173.48 88.233v.5c.005.159-.004.319-.025.477h-9.519a2.27 2.27 0 0 0 .326.953 2.67 2.67 0 0 0 .715.74c.296.217.627.382.978.489.361.114.737.174 1.116.176.601.016 1.198-.108 1.743-.364a3.18 3.18 0 0 0 1.154-.941l3.01 1.806c-.625.858-1.464 1.536-2.433 1.969-1.111.482-2.313.717-3.524.69-.951.004-1.896-.144-2.8-.439a6.8 6.8 0 0 1-2.308-1.279 5.93 5.93 0 0 1-1.555-2.069c-.748-1.784-.753-3.793-.013-5.581a6.1 6.1 0 0 1 1.505-2.107 6.61 6.61 0 0 1 2.245-1.342c.898-.322 1.846-.483 2.8-.477.908-.016 1.81.141 2.659.464a5.84 5.84 0 0 1 2.082 1.342 6.2 6.2 0 0 1 1.355 2.132c.339.915.505 1.885.489 2.86zm-3.976-1.58a2.4 2.4 0 0 0-.64-1.681 2.51 2.51 0 0 0-1.931-.7c-.393-.005-.783.059-1.154.188-.336.118-.65.292-.928.514a2.44 2.44 0 0 0-.627.765c-.159.28-.249.594-.263.916h5.569z"/><path id="E" d="M185.083 85.213c-.184-.051-.373-.085-.564-.1l-.539-.025c-.506-.015-1.008.087-1.467.3-.365.172-.69.42-.953.727-.233.271-.408.587-.514.928a3.21 3.21 0 0 0-.163.878v6.409h-4.33V81.837h4.164v1.806h.05c.33-.639.824-1.18 1.43-1.568a3.85 3.85 0 0 1 2.132-.6 3.45 3.45 0 0 1 .514.025 1.75 1.75 0 0 1 .414.075l-.188 3.637z"/><path id="F" d="M202.013 88.02a7.37 7.37 0 0 1-.426 2.508 6.27 6.27 0 0 1-1.229 2.12c-.546.621-1.217 1.121-1.969 1.467-.826.376-1.726.565-2.634.552a5.73 5.73 0 0 1-2.3-.464 4.19 4.19 0 0 1-1.693-1.267h-.05v7.412h-4.323V81.824h4.114v1.53h.075a5.3 5.3 0 0 1 4.189-1.881c.889-.014 1.771.166 2.584.527a5.82 5.82 0 0 1 1.969 1.43 6.4 6.4 0 0 1 1.242 2.095 7.26 7.26 0 0 1 .439 2.5zm-4.189 0c.002-.402-.066-.8-.2-1.179-.126-.372-.322-.717-.577-1.016-.27-.301-.599-.545-.966-.715-.421-.192-.88-.287-1.342-.276-.454-.011-.905.084-1.317.276a3.22 3.22 0 0 0-.991.727 2.99 2.99 0 0 0-.627 1.028 3.19 3.19 0 0 0 0 2.358 3.43 3.43 0 0 0 .627 1.028 3.22 3.22 0 0 0 .991.727c.412.191.863.286 1.317.276a3.1 3.1 0 0 0 1.342-.276 2.97 2.97 0 0 0 .966-.727c.262-.304.458-.658.577-1.041a3.55 3.55 0 0 0 .2-1.191z"/><path id="G" d="M213.64 85.213c-.184-.051-.373-.085-.564-.1l-.539-.025c-.506-.015-1.008.087-1.467.3-.365.172-.69.42-.953.727-.233.271-.408.587-.514.928a3.21 3.21 0 0 0-.163.878v6.409h-4.329V81.837h4.16v1.806h.05c.33-.639.824-1.18 1.43-1.568a3.82 3.82 0 0 1 2.132-.6 3.45 3.45 0 0 1 .514.025 1.75 1.75 0 0 1 .414.075l-.188 3.637z"/><path id="H" d="M220.651 77.836a1.97 1.97 0 0 1-.2.89c-.132.268-.31.51-.527.715-.23.209-.498.371-.79.477a2.75 2.75 0 0 1-.966.176c-.653.016-1.287-.222-1.768-.665a2.1 2.1 0 0 1-.715-1.593 2.07 2.07 0 0 1 .188-.865 2.12 2.12 0 0 1 .527-.715 2.8 2.8 0 0 1 .79-.489 2.52 2.52 0 0 1 .978-.188 2.75 2.75 0 0 1 .966.176c.293.103.562.265.79.477a2.12 2.12 0 0 1 .527.715 2.15 2.15 0 0 1 .2.89zm-4.637 16.492v-12.5h4.327v12.5z"/><path id="I" d="M231.876 85.512a4.81 4.81 0 0 0-1.242-.8 3.65 3.65 0 0 0-1.505-.326 2.73 2.73 0 0 0-1.116.226.8.8 0 0 0-.514.778c-.006.35.226.66.564.753a13.48 13.48 0 0 0 1.831.5 9.93 9.93 0 0 1 1.492.426 5.39 5.39 0 0 1 1.355.727 3.59 3.59 0 0 1 .978 1.1 3.07 3.07 0 0 1 .364 1.555 3.68 3.68 0 0 1-.5 1.994 4.09 4.09 0 0 1-1.3 1.317 5.75 5.75 0 0 1-1.806.727 9.03 9.03 0 0 1-2.007.226c-1.068.001-2.13-.164-3.148-.489a6.67 6.67 0 0 1-2.571-1.442l2.421-2.433c.411.418.896.757 1.43 1a4.17 4.17 0 0 0 1.793.4 2.38 2.38 0 0 0 1.041-.238.86.86 0 0 0 .514-.84.9.9 0 0 0-.627-.853c-.641-.254-1.305-.447-1.982-.577a11.26 11.26 0 0 1-1.367-.4 4.34 4.34 0 0 1-1.229-.677 3.4 3.4 0 0 1-.878-1.054 3.1 3.1 0 0 1-.339-1.505 3.47 3.47 0 0 1 .5-1.919 4.23 4.23 0 0 1 1.292-1.292c.542-.34 1.135-.59 1.756-.74a7.71 7.71 0 0 1 1.906-.238 9.81 9.81 0 0 1 2.885.439 6.2 6.2 0 0 1 2.383 1.317l-2.37 2.333z"/><path id="J" d="M250.011 88.233v.5c.005.159-.004.319-.025.477h-9.519a2.27 2.27 0 0 0 .326.953 2.67 2.67 0 0 0 .715.74c.296.217.627.382.978.489a3.71 3.71 0 0 0 1.116.176c.601.016 1.198-.108 1.743-.364a3.18 3.18 0 0 0 1.154-.941l3.01 1.806c-.625.858-1.464 1.536-2.433 1.969-1.111.482-2.313.717-3.524.69-.951.003-1.896-.145-2.8-.439a6.8 6.8 0 0 1-2.308-1.279 5.93 5.93 0 0 1-1.555-2.069c-.748-1.784-.753-3.793-.013-5.581a6.1 6.1 0 0 1 1.505-2.107 6.61 6.61 0 0 1 2.245-1.342c.898-.322 1.846-.483 2.8-.477.908-.016 1.81.141 2.659.464a5.84 5.84 0 0 1 2.082 1.342 6.2 6.2 0 0 1 1.355 2.132c.339.915.505 1.885.489 2.86zm-3.976-1.58a2.4 2.4 0 0 0-.64-1.681c-.518-.5-1.226-.755-1.944-.7-.393-.005-.783.059-1.154.188-.336.118-.65.292-.928.514a2.44 2.44 0 0 0-.627.765c-.159.28-.249.594-.263.916h5.569z"/><path id="K" d="M272.499 94.328l-1.455-3.487h-7.224l-1.367 3.487h-4.9l7.826-17.772h4.377l7.743 17.772zm-5-13.031l-2.37 6.108h4.691z"/><path id="L" d="M285.969 94.328h-4.5l-7.064-17.772h5.067l4.327 12.6h.1l4.3-12.6h4.979l-7.2 17.772z"/><path id="M" d="M147.23 62.734V24.193h12.141v15.364h11.852V24.193h12.141v38.541h-12.141V48.963h-11.852v13.771H147.23z"/><path id="N" d="M190.638 24.193h29.423v9.91h-17.282v5.017h15.088v8.8h-15.088v4.9h17.283v9.908h-29.424z"/><path id="O" d="M267.633 62.734l15.664-38.541h10.748l16.066 38.541h-12.892l-2.6-6.447h-12.024l-2.433 6.447H267.62zm24.971-15.477l-3.875-10.849-4.214 10.849z"/><path id="P" d="M311.379 62.734V24.193h19.653c9.419 0 14.448 6.058 14.448 13.432 0 5.669-3.06 9.8-8.378 11.4.514 3.637 2.37 5.343 4.741 5.343a8.3 8.3 0 0 0 4.39-1.317l3.7 7.324c-3.152 2.016-6.832 3.05-10.573 2.972-10.523 0-12.492-9.632-12.943-13.6h-2.885v13h-12.14zm12.141-28.631v7.651h6.246c2.013-.075 3.601-1.736 3.587-3.75.078-2.067-1.521-3.811-3.587-3.913h-6.246z"/><path id="Q" d="M351.087 62.734l3.7-38.541h11.564l9.193 21.91 9.193-21.91h11.564l3.7 38.541h-12.078l-1.505-17.559-6.885 17.182h-7.976l-6.873-17.182-1.507 17.559H351.1z"/><path id="R" d="M58.909 37.852c-2.3 0-4.164 1.864-4.164 4.164s1.864 4.164 4.164 4.164 4.164-1.864 4.164-4.164a4.17 4.17 0 0 0-4.164-4.164zm-.778 6.509c-.771 0-1.466-.464-1.761-1.177s-.132-1.532.413-2.077 1.365-.708 2.077-.413 1.177.99 1.177 1.761c0 1.053-.853 1.906-1.906 1.906z"/><path id="S" d="M44.85 0A44.856 44.856 0 0 0 33.2 88.17V77.346l1.819-.113c.477-.05 1.129-.2 1.129-.2v11.814a45.345 45.345 0 0 0 18-.125 26.659 26.659 0 0 1-1.656-3.788C67.614 74.01 73.9 59.261 72.028 40.962a50.687 50.687 0 0 1 14.837 19.565A44.867 44.867 0 0 0 44.85 0zm-5.882 5.757c2.308-.125 6.271 1.492 8.529 2.822 6.522 3.863 14.536 11.2 18.336 18.976A40.5 40.5 0 0 0 60.8 29.5c-5.067-5.456-10.824-8.115-17.7-9.482-3.537-.7-7.412-.552-9.356-3.211A6.864 6.864 0 0 1 38.98 5.744zm3 22.8c-2.7.088-5.983 1.442-7.713-.552a4.241 4.241 0 0 1 1.329-6.522c3.524-1.58 9.858.953 12.83 2.132A38.7 38.7 0 0 1 59.2 30.276q-1.524.79-2.972 1.693c-4.252-1.693-8.729-3.6-14.26-3.411zm12.028 4.916a44.339 44.339 0 0 0-3.6 2.9c-1.793.176-4.39.3-6.033.539-1.455.213-2.759.552-3.863.6h-.19a2.746 2.746 0 0 1-2.032-.7 3.334 3.334 0 0 1 1.342-5.895c.176-.05.351-.1.539-.138 5.393-1.041 12.253 1.442 13.846 2.7zm-17.461 41.39a8.021 8.021 0 0 1-1.2.351 10.177 10.177 0 0 1-1.342.113 8.5 8.5 0 0 1-8.393-6.271l-3.888-14.5A8.489 8.489 0 0 1 27.693 44.2h0a8.489 8.489 0 0 1 10.36 5.983l.063.226L30.3 52.5a1.068 1.068 0 0 0-.753 1.317h0a1.075 1.075 0 0 0 1.317.765l7.826-2.095.564 2.069-7.824 2.096a1.072 1.072 0 1 0 .564 2.069l7.826-2.095.564 2.069-7.839 2.095a1.068 1.068 0 0 0-.753 1.317h0a1.075 1.075 0 0 0 1.317.765l7.839-2.095.815 3.148.2.778a8.476 8.476 0 0 1-5.403 10.185zm21.246-4.992c-1.154 3.148-3.725 6.447-6.685 5.192-.025 0-.05-.025-.063-.025a.178.178 0 0 1-.075-.025c-3-1.141-2.559-5.305-1.2-8.378 1.668-3.75 7.751-10.309 8.754-10.56h.176c.025 0 .063.05.1.088h0a.155.155 0 0 0 .025.038c.539.878.364 9.82-1.041 13.683zm9.444-6.9C61.43 52.889 53.291 48.186 42.956 48.562c1.831-4.164 5.28-7.538 8.955-10.723a39.89 39.89 0 0 1 14.749-8.215c5.64 12.316 4.453 24.976.565 33.362z"/><path id="T" d="M34.565 68.968c-1.101 0-1.994.893-1.994 1.994s.893 1.994 1.994 1.994 1.994-.893 1.994-1.994a1.99 1.99 0 0 0-1.994-1.994z"/></defs></svg>