<?xml version="1.0" encoding="UTF-8"?>
<svg xmlns="http://www.w3.org/2000/svg" version="1.1" viewBox="0 0 1100.5 250">
  <defs>
    <style>
      .cls-1 {
        fill: #00b344;
      }

      .cls-2 {
        fill: #01403d;
      }
    </style>
  </defs>
  <!-- Generator: Adobe Illustrator 28.7.0, SVG Export Plug-In . SVG Version: 1.2.0 Build 136)  -->
  <g>
    <g id="Layer_1">
      <polygon class="cls-2" points="199.5 9.8 116.7 223.2 70.3 9.8 6.5 9.8 59.2 239.7 110.1 240.1 110.1 240.2 176.8 240.2 268.9 9.8 199.5 9.8"/>
      <polygon class="cls-2" points="310.6 240.2 246.5 240.2 283.7 10.2 347.8 10.2 310.6 240.2"/>
      <path class="cls-2" d="M833,88.1c-5.1,38.1-36.7,69.8-73.8,76.5l-39-49.1h17.3c1.7,0,3.4-.2,5.1-.5,5.7-1,11-3.7,15.4-7.6,5.6-4.9,9.6-11.8,10.6-19.3,1.7-12.9-5.7-23.7-17.3-26.6-2-.5-4.1-.8-6.4-.8h-57.6l-29,179.5h-64.1l37.2-230h134.1c37.9,0,65.8,26.9,68.1,62.7.3,4.9,0,10-.6,15.2Z"/>
      <polygon class="cls-2" points="619.2 10.2 532.5 10.2 433.3 98.4 447.6 10.2 383.5 10.2 346.3 240.2 410.4 240.2 426.3 142.3 504.5 240.2 582.2 240.2 490.2 125.1 619.2 10.2"/>
      <polygon class="cls-2" points="1093.5 240.2 1040.8 10.2 989.9 9.9 989.9 9.8 923.2 9.8 831.1 240.2 900.5 240.2 983.3 26.8 1029.7 240.2 1093.5 240.2"/>
      <polygon class="cls-1" points="819.1 240.2 738.4 240.2 671.8 156.7 678.4 115.5 720.2 115.5 759.2 164.6 819.1 240.2"/>
    </g>
  </g>
</svg>